%TF.GenerationSoftware,KiCad,Pcbnew,(5.1.6)-1*%
%TF.CreationDate,2020-10-16T10:26:54-04:00*%
%TF.ProjectId,heater,68656174-6572-42e6-9b69-6361645f7063,rev?*%
%TF.SameCoordinates,Original*%
%TF.FileFunction,Other,User*%
%FSLAX46Y46*%
G04 Gerber Fmt 4.6, Leading zero omitted, Abs format (unit mm)*
G04 Created by KiCad (PCBNEW (5.1.6)-1) date 2020-10-16 10:26:54*
%MOMM*%
%LPD*%
G01*
G04 APERTURE LIST*
%ADD10C,0.050000*%
G04 APERTURE END LIST*
D10*
%TO.C,R7*%
X35753000Y-19477000D02*
X35753000Y-23177000D01*
X37653000Y-19477000D02*
X35753000Y-19477000D01*
X37653000Y-23177000D02*
X37653000Y-19477000D01*
X35753000Y-23177000D02*
X37653000Y-23177000D01*
%TO.C,D3*%
X35240000Y-23195000D02*
X35240000Y-19495000D01*
X33340000Y-23195000D02*
X35240000Y-23195000D01*
X33340000Y-19495000D02*
X33340000Y-23195000D01*
X35240000Y-19495000D02*
X33340000Y-19495000D01*
%TO.C,J1*%
X22230000Y-54830000D02*
X22230000Y-23830000D01*
X33040000Y-54830000D02*
X22230000Y-54830000D01*
X33040000Y-23830000D02*
X33040000Y-54830000D01*
X22230000Y-23830000D02*
X33040000Y-23830000D01*
%TO.C,R6*%
X22418000Y-23322000D02*
X24318000Y-23322000D01*
X24318000Y-23322000D02*
X24318000Y-19622000D01*
X24318000Y-19622000D02*
X22418000Y-19622000D01*
X22418000Y-19622000D02*
X22418000Y-23322000D01*
%TO.C,R5*%
X29779000Y-19622000D02*
X27879000Y-19622000D01*
X27879000Y-19622000D02*
X27879000Y-23322000D01*
X27879000Y-23322000D02*
X29779000Y-23322000D01*
X29779000Y-23322000D02*
X29779000Y-19622000D01*
%TO.C,D2*%
X24958000Y-23322000D02*
X26858000Y-23322000D01*
X26858000Y-23322000D02*
X26858000Y-19622000D01*
X26858000Y-19622000D02*
X24958000Y-19622000D01*
X24958000Y-19622000D02*
X24958000Y-23322000D01*
%TO.C,D1*%
X32446000Y-19604000D02*
X30546000Y-19604000D01*
X30546000Y-19604000D02*
X30546000Y-23304000D01*
X30546000Y-23304000D02*
X32446000Y-23304000D01*
X32446000Y-23304000D02*
X32446000Y-19604000D01*
%TD*%
M02*
