%TF.GenerationSoftware,KiCad,Pcbnew,(5.1.6)-1*%
%TF.CreationDate,2020-10-09T13:05:12-04:00*%
%TF.ProjectId,heater,68656174-6572-42e6-9b69-6361645f7063,rev?*%
%TF.SameCoordinates,Original*%
%TF.FileFunction,Copper,L2,Bot*%
%TF.FilePolarity,Positive*%
%FSLAX46Y46*%
G04 Gerber Fmt 4.6, Leading zero omitted, Abs format (unit mm)*
G04 Created by KiCad (PCBNEW (5.1.6)-1) date 2020-10-09 13:05:12*
%MOMM*%
%LPD*%
G01*
G04 APERTURE LIST*
%TA.AperFunction,ComponentPad*%
%ADD10O,2.400000X2.400000*%
%TD*%
%TA.AperFunction,ComponentPad*%
%ADD11C,2.400000*%
%TD*%
%TA.AperFunction,ComponentPad*%
%ADD12C,2.600000*%
%TD*%
%TA.AperFunction,ComponentPad*%
%ADD13R,2.600000X2.600000*%
%TD*%
%TA.AperFunction,ViaPad*%
%ADD14C,0.800000*%
%TD*%
%TA.AperFunction,Conductor*%
%ADD15C,0.500000*%
%TD*%
%TA.AperFunction,Conductor*%
%ADD16C,3.000000*%
%TD*%
G04 APERTURE END LIST*
D10*
%TO.P,R3,2*%
%TO.N,Net-(D1-Pad1)*%
X52070000Y-52070000D03*
D11*
%TO.P,R3,1*%
%TO.N,Net-(R1-Pad2)*%
X52070000Y-21590000D03*
%TD*%
D10*
%TO.P,R2,2*%
%TO.N,Net-(R1-Pad2)*%
X64770000Y-21590000D03*
D11*
%TO.P,R2,1*%
%TO.N,VCC*%
X64770000Y-52070000D03*
%TD*%
D10*
%TO.P,R1,2*%
%TO.N,Net-(R1-Pad2)*%
X77470000Y-21590000D03*
D11*
%TO.P,R1,1*%
%TO.N,VCC*%
X77470000Y-52070000D03*
%TD*%
%TO.P,R6,2*%
%TO.N,Net-(D2-Pad2)*%
%TA.AperFunction,SMDPad,CuDef*%
G36*
G01*
X25850001Y-20895000D02*
X24949999Y-20895000D01*
G75*
G02*
X24700000Y-20645001I0J249999D01*
G01*
X24700000Y-19994999D01*
G75*
G02*
X24949999Y-19745000I249999J0D01*
G01*
X25850001Y-19745000D01*
G75*
G02*
X26100000Y-19994999I0J-249999D01*
G01*
X26100000Y-20645001D01*
G75*
G02*
X25850001Y-20895000I-249999J0D01*
G01*
G37*
%TD.AperFunction*%
%TO.P,R6,1*%
%TO.N,VCC*%
%TA.AperFunction,SMDPad,CuDef*%
G36*
G01*
X25850001Y-22945000D02*
X24949999Y-22945000D01*
G75*
G02*
X24700000Y-22695001I0J249999D01*
G01*
X24700000Y-22044999D01*
G75*
G02*
X24949999Y-21795000I249999J0D01*
G01*
X25850001Y-21795000D01*
G75*
G02*
X26100000Y-22044999I0J-249999D01*
G01*
X26100000Y-22695001D01*
G75*
G02*
X25850001Y-22945000I-249999J0D01*
G01*
G37*
%TD.AperFunction*%
%TD*%
%TO.P,R5,2*%
%TO.N,VCC*%
%TA.AperFunction,SMDPad,CuDef*%
G36*
G01*
X24949999Y-52520000D02*
X25850001Y-52520000D01*
G75*
G02*
X26100000Y-52769999I0J-249999D01*
G01*
X26100000Y-53420001D01*
G75*
G02*
X25850001Y-53670000I-249999J0D01*
G01*
X24949999Y-53670000D01*
G75*
G02*
X24700000Y-53420001I0J249999D01*
G01*
X24700000Y-52769999D01*
G75*
G02*
X24949999Y-52520000I249999J0D01*
G01*
G37*
%TD.AperFunction*%
%TO.P,R5,1*%
%TO.N,Net-(D1-Pad2)*%
%TA.AperFunction,SMDPad,CuDef*%
G36*
G01*
X24949999Y-50470000D02*
X25850001Y-50470000D01*
G75*
G02*
X26100000Y-50719999I0J-249999D01*
G01*
X26100000Y-51370001D01*
G75*
G02*
X25850001Y-51620000I-249999J0D01*
G01*
X24949999Y-51620000D01*
G75*
G02*
X24700000Y-51370001I0J249999D01*
G01*
X24700000Y-50719999D01*
G75*
G02*
X24949999Y-50470000I249999J0D01*
G01*
G37*
%TD.AperFunction*%
%TD*%
D10*
%TO.P,R4,2*%
%TO.N,Net-(D1-Pad1)*%
X40005000Y-52070000D03*
D11*
%TO.P,R4,1*%
%TO.N,Net-(R1-Pad2)*%
X40005000Y-21590000D03*
%TD*%
D12*
%TO.P,J1,5*%
%TO.N,/Heat_Control*%
X27940000Y-46830000D03*
%TO.P,J1,4*%
%TO.N,GND*%
X27940000Y-41830000D03*
%TO.P,J1,3*%
%TO.N,VCC*%
X27940000Y-36830000D03*
%TO.P,J1,2*%
%TO.N,GND*%
X27940000Y-31830000D03*
D13*
%TO.P,J1,1*%
%TO.N,VCC*%
X27940000Y-26830000D03*
%TD*%
%TO.P,D2,2*%
%TO.N,Net-(D2-Pad2)*%
%TA.AperFunction,SMDPad,CuDef*%
G36*
G01*
X29660001Y-20895000D02*
X28759999Y-20895000D01*
G75*
G02*
X28510000Y-20645001I0J249999D01*
G01*
X28510000Y-19994999D01*
G75*
G02*
X28759999Y-19745000I249999J0D01*
G01*
X29660001Y-19745000D01*
G75*
G02*
X29910000Y-19994999I0J-249999D01*
G01*
X29910000Y-20645001D01*
G75*
G02*
X29660001Y-20895000I-249999J0D01*
G01*
G37*
%TD.AperFunction*%
%TO.P,D2,1*%
%TO.N,GND*%
%TA.AperFunction,SMDPad,CuDef*%
G36*
G01*
X29660001Y-22945000D02*
X28759999Y-22945000D01*
G75*
G02*
X28510000Y-22695001I0J249999D01*
G01*
X28510000Y-22044999D01*
G75*
G02*
X28759999Y-21795000I249999J0D01*
G01*
X29660001Y-21795000D01*
G75*
G02*
X29910000Y-22044999I0J-249999D01*
G01*
X29910000Y-22695001D01*
G75*
G02*
X29660001Y-22945000I-249999J0D01*
G01*
G37*
%TD.AperFunction*%
%TD*%
%TO.P,D1,2*%
%TO.N,Net-(D1-Pad2)*%
%TA.AperFunction,SMDPad,CuDef*%
G36*
G01*
X28759999Y-52520000D02*
X29660001Y-52520000D01*
G75*
G02*
X29910000Y-52769999I0J-249999D01*
G01*
X29910000Y-53420001D01*
G75*
G02*
X29660001Y-53670000I-249999J0D01*
G01*
X28759999Y-53670000D01*
G75*
G02*
X28510000Y-53420001I0J249999D01*
G01*
X28510000Y-52769999D01*
G75*
G02*
X28759999Y-52520000I249999J0D01*
G01*
G37*
%TD.AperFunction*%
%TO.P,D1,1*%
%TO.N,Net-(D1-Pad1)*%
%TA.AperFunction,SMDPad,CuDef*%
G36*
G01*
X28759999Y-50470000D02*
X29660001Y-50470000D01*
G75*
G02*
X29910000Y-50719999I0J-249999D01*
G01*
X29910000Y-51370001D01*
G75*
G02*
X29660001Y-51620000I-249999J0D01*
G01*
X28759999Y-51620000D01*
G75*
G02*
X28510000Y-51370001I0J249999D01*
G01*
X28510000Y-50719999D01*
G75*
G02*
X28759999Y-50470000I249999J0D01*
G01*
G37*
%TD.AperFunction*%
%TD*%
D14*
%TO.N,GND*%
X31750000Y-27940000D03*
%TO.N,/Heat_Control*%
X30353000Y-36957000D03*
%TD*%
D15*
%TO.N,Net-(D1-Pad2)*%
X25400000Y-51045000D02*
X26153000Y-51045000D01*
X28203000Y-53095000D02*
X29210000Y-53095000D01*
X26153000Y-51045000D02*
X28203000Y-53095000D01*
%TO.N,GND*%
X29210000Y-22370000D02*
X29990000Y-22370000D01*
X29990000Y-22370000D02*
X31750000Y-24130000D01*
X31750000Y-24130000D02*
X31750000Y-27940000D01*
X31750000Y-27940000D02*
X31750000Y-27940000D01*
X27940000Y-31750000D02*
X27940000Y-31830000D01*
X31750000Y-27940000D02*
X27940000Y-31750000D01*
%TO.N,Net-(D2-Pad2)*%
X25400000Y-20320000D02*
X29210000Y-20320000D01*
%TO.N,/Heat_Control*%
X27940000Y-46830000D02*
X30353000Y-44417000D01*
X30353000Y-44417000D02*
X30353000Y-36957000D01*
X30353000Y-36957000D02*
X30353000Y-36957000D01*
D16*
%TO.N,VCC*%
X27940000Y-26830000D02*
X26510000Y-26830000D01*
X27940000Y-26830000D02*
X25240000Y-26830000D01*
X25240000Y-26830000D02*
X24130000Y-27940000D01*
X24130000Y-33020000D02*
X27940000Y-36830000D01*
X24130000Y-27940000D02*
X24130000Y-33020000D01*
X64770000Y-52070000D02*
X57150000Y-52070000D01*
X57150000Y-52070000D02*
X53340000Y-55880000D01*
X27940000Y-36830000D02*
X22860000Y-41910000D01*
X24652268Y-55880000D02*
X53340000Y-55880000D01*
X22860000Y-54087732D02*
X24652268Y-55880000D01*
X22860000Y-41910000D02*
X22860000Y-54087732D01*
D15*
X25400000Y-24290000D02*
X27940000Y-26830000D01*
X25400000Y-22370000D02*
X25400000Y-24290000D01*
X23852732Y-53095000D02*
X22860000Y-54087732D01*
X25400000Y-53095000D02*
X23852732Y-53095000D01*
%TO.N,Net-(D1-Pad1)*%
X29210000Y-51045000D02*
X32249000Y-51045000D01*
X33274000Y-52070000D02*
X39370000Y-52070000D01*
X32249000Y-51045000D02*
X33274000Y-52070000D01*
%TD*%
M02*
