%TF.GenerationSoftware,KiCad,Pcbnew,(5.1.6)-1*%
%TF.CreationDate,2020-10-16T10:26:54-04:00*%
%TF.ProjectId,heater,68656174-6572-42e6-9b69-6361645f7063,rev?*%
%TF.SameCoordinates,Original*%
%TF.FileFunction,Paste,Bot*%
%TF.FilePolarity,Positive*%
%FSLAX46Y46*%
G04 Gerber Fmt 4.6, Leading zero omitted, Abs format (unit mm)*
G04 Created by KiCad (PCBNEW (5.1.6)-1) date 2020-10-16 10:26:54*
%MOMM*%
%LPD*%
G01*
G04 APERTURE LIST*
G04 APERTURE END LIST*
%TO.C,R7*%
G36*
G01*
X37153001Y-20877000D02*
X36252999Y-20877000D01*
G75*
G02*
X36003000Y-20627001I0J249999D01*
G01*
X36003000Y-19976999D01*
G75*
G02*
X36252999Y-19727000I249999J0D01*
G01*
X37153001Y-19727000D01*
G75*
G02*
X37403000Y-19976999I0J-249999D01*
G01*
X37403000Y-20627001D01*
G75*
G02*
X37153001Y-20877000I-249999J0D01*
G01*
G37*
G36*
G01*
X37153001Y-22927000D02*
X36252999Y-22927000D01*
G75*
G02*
X36003000Y-22677001I0J249999D01*
G01*
X36003000Y-22026999D01*
G75*
G02*
X36252999Y-21777000I249999J0D01*
G01*
X37153001Y-21777000D01*
G75*
G02*
X37403000Y-22026999I0J-249999D01*
G01*
X37403000Y-22677001D01*
G75*
G02*
X37153001Y-22927000I-249999J0D01*
G01*
G37*
%TD*%
%TO.C,D3*%
G36*
G01*
X33839999Y-21795000D02*
X34740001Y-21795000D01*
G75*
G02*
X34990000Y-22044999I0J-249999D01*
G01*
X34990000Y-22695001D01*
G75*
G02*
X34740001Y-22945000I-249999J0D01*
G01*
X33839999Y-22945000D01*
G75*
G02*
X33590000Y-22695001I0J249999D01*
G01*
X33590000Y-22044999D01*
G75*
G02*
X33839999Y-21795000I249999J0D01*
G01*
G37*
G36*
G01*
X33839999Y-19745000D02*
X34740001Y-19745000D01*
G75*
G02*
X34990000Y-19994999I0J-249999D01*
G01*
X34990000Y-20645001D01*
G75*
G02*
X34740001Y-20895000I-249999J0D01*
G01*
X33839999Y-20895000D01*
G75*
G02*
X33590000Y-20645001I0J249999D01*
G01*
X33590000Y-19994999D01*
G75*
G02*
X33839999Y-19745000I249999J0D01*
G01*
G37*
%TD*%
%TO.C,R6*%
G36*
G01*
X23818001Y-21022000D02*
X22917999Y-21022000D01*
G75*
G02*
X22668000Y-20772001I0J249999D01*
G01*
X22668000Y-20121999D01*
G75*
G02*
X22917999Y-19872000I249999J0D01*
G01*
X23818001Y-19872000D01*
G75*
G02*
X24068000Y-20121999I0J-249999D01*
G01*
X24068000Y-20772001D01*
G75*
G02*
X23818001Y-21022000I-249999J0D01*
G01*
G37*
G36*
G01*
X23818001Y-23072000D02*
X22917999Y-23072000D01*
G75*
G02*
X22668000Y-22822001I0J249999D01*
G01*
X22668000Y-22171999D01*
G75*
G02*
X22917999Y-21922000I249999J0D01*
G01*
X23818001Y-21922000D01*
G75*
G02*
X24068000Y-22171999I0J-249999D01*
G01*
X24068000Y-22822001D01*
G75*
G02*
X23818001Y-23072000I-249999J0D01*
G01*
G37*
%TD*%
%TO.C,R5*%
G36*
G01*
X28378999Y-21922000D02*
X29279001Y-21922000D01*
G75*
G02*
X29529000Y-22171999I0J-249999D01*
G01*
X29529000Y-22822001D01*
G75*
G02*
X29279001Y-23072000I-249999J0D01*
G01*
X28378999Y-23072000D01*
G75*
G02*
X28129000Y-22822001I0J249999D01*
G01*
X28129000Y-22171999D01*
G75*
G02*
X28378999Y-21922000I249999J0D01*
G01*
G37*
G36*
G01*
X28378999Y-19872000D02*
X29279001Y-19872000D01*
G75*
G02*
X29529000Y-20121999I0J-249999D01*
G01*
X29529000Y-20772001D01*
G75*
G02*
X29279001Y-21022000I-249999J0D01*
G01*
X28378999Y-21022000D01*
G75*
G02*
X28129000Y-20772001I0J249999D01*
G01*
X28129000Y-20121999D01*
G75*
G02*
X28378999Y-19872000I249999J0D01*
G01*
G37*
%TD*%
%TO.C,D2*%
G36*
G01*
X26358001Y-21022000D02*
X25457999Y-21022000D01*
G75*
G02*
X25208000Y-20772001I0J249999D01*
G01*
X25208000Y-20121999D01*
G75*
G02*
X25457999Y-19872000I249999J0D01*
G01*
X26358001Y-19872000D01*
G75*
G02*
X26608000Y-20121999I0J-249999D01*
G01*
X26608000Y-20772001D01*
G75*
G02*
X26358001Y-21022000I-249999J0D01*
G01*
G37*
G36*
G01*
X26358001Y-23072000D02*
X25457999Y-23072000D01*
G75*
G02*
X25208000Y-22822001I0J249999D01*
G01*
X25208000Y-22171999D01*
G75*
G02*
X25457999Y-21922000I249999J0D01*
G01*
X26358001Y-21922000D01*
G75*
G02*
X26608000Y-22171999I0J-249999D01*
G01*
X26608000Y-22822001D01*
G75*
G02*
X26358001Y-23072000I-249999J0D01*
G01*
G37*
%TD*%
%TO.C,D1*%
G36*
G01*
X31045999Y-21904000D02*
X31946001Y-21904000D01*
G75*
G02*
X32196000Y-22153999I0J-249999D01*
G01*
X32196000Y-22804001D01*
G75*
G02*
X31946001Y-23054000I-249999J0D01*
G01*
X31045999Y-23054000D01*
G75*
G02*
X30796000Y-22804001I0J249999D01*
G01*
X30796000Y-22153999D01*
G75*
G02*
X31045999Y-21904000I249999J0D01*
G01*
G37*
G36*
G01*
X31045999Y-19854000D02*
X31946001Y-19854000D01*
G75*
G02*
X32196000Y-20103999I0J-249999D01*
G01*
X32196000Y-20754001D01*
G75*
G02*
X31946001Y-21004000I-249999J0D01*
G01*
X31045999Y-21004000D01*
G75*
G02*
X30796000Y-20754001I0J249999D01*
G01*
X30796000Y-20103999D01*
G75*
G02*
X31045999Y-19854000I249999J0D01*
G01*
G37*
%TD*%
M02*
