%TF.GenerationSoftware,KiCad,Pcbnew,(5.1.6)-1*%
%TF.CreationDate,2020-10-09T13:05:12-04:00*%
%TF.ProjectId,heater,68656174-6572-42e6-9b69-6361645f7063,rev?*%
%TF.SameCoordinates,Original*%
%TF.FileFunction,Paste,Top*%
%TF.FilePolarity,Positive*%
%FSLAX46Y46*%
G04 Gerber Fmt 4.6, Leading zero omitted, Abs format (unit mm)*
G04 Created by KiCad (PCBNEW (5.1.6)-1) date 2020-10-09 13:05:12*
%MOMM*%
%LPD*%
G01*
G04 APERTURE LIST*
G04 APERTURE END LIST*
%TO.C,Q1*%
G36*
G01*
X34013000Y-39038000D02*
X34313000Y-39038000D01*
G75*
G02*
X34463000Y-39188000I0J-150000D01*
G01*
X34463000Y-40638000D01*
G75*
G02*
X34313000Y-40788000I-150000J0D01*
G01*
X34013000Y-40788000D01*
G75*
G02*
X33863000Y-40638000I0J150000D01*
G01*
X33863000Y-39188000D01*
G75*
G02*
X34013000Y-39038000I150000J0D01*
G01*
G37*
G36*
G01*
X32743000Y-39038000D02*
X33043000Y-39038000D01*
G75*
G02*
X33193000Y-39188000I0J-150000D01*
G01*
X33193000Y-40638000D01*
G75*
G02*
X33043000Y-40788000I-150000J0D01*
G01*
X32743000Y-40788000D01*
G75*
G02*
X32593000Y-40638000I0J150000D01*
G01*
X32593000Y-39188000D01*
G75*
G02*
X32743000Y-39038000I150000J0D01*
G01*
G37*
G36*
G01*
X31473000Y-39038000D02*
X31773000Y-39038000D01*
G75*
G02*
X31923000Y-39188000I0J-150000D01*
G01*
X31923000Y-40638000D01*
G75*
G02*
X31773000Y-40788000I-150000J0D01*
G01*
X31473000Y-40788000D01*
G75*
G02*
X31323000Y-40638000I0J150000D01*
G01*
X31323000Y-39188000D01*
G75*
G02*
X31473000Y-39038000I150000J0D01*
G01*
G37*
G36*
G01*
X30203000Y-39038000D02*
X30503000Y-39038000D01*
G75*
G02*
X30653000Y-39188000I0J-150000D01*
G01*
X30653000Y-40638000D01*
G75*
G02*
X30503000Y-40788000I-150000J0D01*
G01*
X30203000Y-40788000D01*
G75*
G02*
X30053000Y-40638000I0J150000D01*
G01*
X30053000Y-39188000D01*
G75*
G02*
X30203000Y-39038000I150000J0D01*
G01*
G37*
G36*
G01*
X30203000Y-33888000D02*
X30503000Y-33888000D01*
G75*
G02*
X30653000Y-34038000I0J-150000D01*
G01*
X30653000Y-35488000D01*
G75*
G02*
X30503000Y-35638000I-150000J0D01*
G01*
X30203000Y-35638000D01*
G75*
G02*
X30053000Y-35488000I0J150000D01*
G01*
X30053000Y-34038000D01*
G75*
G02*
X30203000Y-33888000I150000J0D01*
G01*
G37*
G36*
G01*
X31473000Y-33888000D02*
X31773000Y-33888000D01*
G75*
G02*
X31923000Y-34038000I0J-150000D01*
G01*
X31923000Y-35488000D01*
G75*
G02*
X31773000Y-35638000I-150000J0D01*
G01*
X31473000Y-35638000D01*
G75*
G02*
X31323000Y-35488000I0J150000D01*
G01*
X31323000Y-34038000D01*
G75*
G02*
X31473000Y-33888000I150000J0D01*
G01*
G37*
G36*
G01*
X32743000Y-33888000D02*
X33043000Y-33888000D01*
G75*
G02*
X33193000Y-34038000I0J-150000D01*
G01*
X33193000Y-35488000D01*
G75*
G02*
X33043000Y-35638000I-150000J0D01*
G01*
X32743000Y-35638000D01*
G75*
G02*
X32593000Y-35488000I0J150000D01*
G01*
X32593000Y-34038000D01*
G75*
G02*
X32743000Y-33888000I150000J0D01*
G01*
G37*
G36*
G01*
X34013000Y-33888000D02*
X34313000Y-33888000D01*
G75*
G02*
X34463000Y-34038000I0J-150000D01*
G01*
X34463000Y-35488000D01*
G75*
G02*
X34313000Y-35638000I-150000J0D01*
G01*
X34013000Y-35638000D01*
G75*
G02*
X33863000Y-35488000I0J150000D01*
G01*
X33863000Y-34038000D01*
G75*
G02*
X34013000Y-33888000I150000J0D01*
G01*
G37*
%TD*%
M02*
