%TF.GenerationSoftware,KiCad,Pcbnew,(5.1.6)-1*%
%TF.CreationDate,2020-10-09T13:05:12-04:00*%
%TF.ProjectId,heater,68656174-6572-42e6-9b69-6361645f7063,rev?*%
%TF.SameCoordinates,Original*%
%TF.FileFunction,Legend,Bot*%
%TF.FilePolarity,Positive*%
%FSLAX46Y46*%
G04 Gerber Fmt 4.6, Leading zero omitted, Abs format (unit mm)*
G04 Created by KiCad (PCBNEW (5.1.6)-1) date 2020-10-09 13:05:12*
%MOMM*%
%LPD*%
G01*
G04 APERTURE LIST*
%ADD10C,0.125000*%
%ADD11C,0.150000*%
%ADD12C,0.120000*%
G04 APERTURE END LIST*
D10*
X35402559Y-54779404D02*
X35135892Y-55579404D01*
X34869226Y-54779404D01*
X34602559Y-55579404D02*
X34602559Y-54779404D01*
X34221607Y-55579404D02*
X34221607Y-54779404D01*
X33916845Y-54779404D01*
X33840654Y-54817500D01*
X33802559Y-54855595D01*
X33764464Y-54931785D01*
X33764464Y-55046071D01*
X33802559Y-55122261D01*
X33840654Y-55160357D01*
X33916845Y-55198452D01*
X34221607Y-55198452D01*
X33421607Y-55274642D02*
X32812083Y-55274642D01*
X32050178Y-55579404D02*
X32431130Y-55579404D01*
X32431130Y-54779404D01*
X31783511Y-55160357D02*
X31516845Y-55160357D01*
X31402559Y-55579404D02*
X31783511Y-55579404D01*
X31783511Y-54779404D01*
X31402559Y-54779404D01*
X31097797Y-55541309D02*
X30983511Y-55579404D01*
X30793035Y-55579404D01*
X30716845Y-55541309D01*
X30678750Y-55503214D01*
X30640654Y-55427023D01*
X30640654Y-55350833D01*
X30678750Y-55274642D01*
X30716845Y-55236547D01*
X30793035Y-55198452D01*
X30945416Y-55160357D01*
X31021607Y-55122261D01*
X31059702Y-55084166D01*
X31097797Y-55007976D01*
X31097797Y-54931785D01*
X31059702Y-54855595D01*
X31021607Y-54817500D01*
X30945416Y-54779404D01*
X30754940Y-54779404D01*
X30640654Y-54817500D01*
X29688273Y-55579404D02*
X29688273Y-54779404D01*
X29688273Y-55160357D02*
X29231130Y-55160357D01*
X29231130Y-55579404D02*
X29231130Y-54779404D01*
X28545416Y-55541309D02*
X28621607Y-55579404D01*
X28773988Y-55579404D01*
X28850178Y-55541309D01*
X28888273Y-55465119D01*
X28888273Y-55160357D01*
X28850178Y-55084166D01*
X28773988Y-55046071D01*
X28621607Y-55046071D01*
X28545416Y-55084166D01*
X28507321Y-55160357D01*
X28507321Y-55236547D01*
X28888273Y-55312738D01*
X27821607Y-55579404D02*
X27821607Y-55160357D01*
X27859702Y-55084166D01*
X27935892Y-55046071D01*
X28088273Y-55046071D01*
X28164464Y-55084166D01*
X27821607Y-55541309D02*
X27897797Y-55579404D01*
X28088273Y-55579404D01*
X28164464Y-55541309D01*
X28202559Y-55465119D01*
X28202559Y-55388928D01*
X28164464Y-55312738D01*
X28088273Y-55274642D01*
X27897797Y-55274642D01*
X27821607Y-55236547D01*
X27554940Y-55046071D02*
X27250178Y-55046071D01*
X27440654Y-54779404D02*
X27440654Y-55465119D01*
X27402559Y-55541309D01*
X27326369Y-55579404D01*
X27250178Y-55579404D01*
X26678750Y-55541309D02*
X26754940Y-55579404D01*
X26907321Y-55579404D01*
X26983511Y-55541309D01*
X27021607Y-55465119D01*
X27021607Y-55160357D01*
X26983511Y-55084166D01*
X26907321Y-55046071D01*
X26754940Y-55046071D01*
X26678750Y-55084166D01*
X26640654Y-55160357D01*
X26640654Y-55236547D01*
X27021607Y-55312738D01*
X26297797Y-55579404D02*
X26297797Y-55046071D01*
X26297797Y-55198452D02*
X26259702Y-55122261D01*
X26221607Y-55084166D01*
X26145416Y-55046071D01*
X26069226Y-55046071D01*
X35288273Y-56904404D02*
X35288273Y-56104404D01*
X35097797Y-56104404D01*
X34983511Y-56142500D01*
X34907321Y-56218690D01*
X34869226Y-56294880D01*
X34831130Y-56447261D01*
X34831130Y-56561547D01*
X34869226Y-56713928D01*
X34907321Y-56790119D01*
X34983511Y-56866309D01*
X35097797Y-56904404D01*
X35288273Y-56904404D01*
X34183511Y-56866309D02*
X34259702Y-56904404D01*
X34412083Y-56904404D01*
X34488273Y-56866309D01*
X34526369Y-56790119D01*
X34526369Y-56485357D01*
X34488273Y-56409166D01*
X34412083Y-56371071D01*
X34259702Y-56371071D01*
X34183511Y-56409166D01*
X34145416Y-56485357D01*
X34145416Y-56561547D01*
X34526369Y-56637738D01*
X33840654Y-56866309D02*
X33764464Y-56904404D01*
X33612083Y-56904404D01*
X33535892Y-56866309D01*
X33497797Y-56790119D01*
X33497797Y-56752023D01*
X33535892Y-56675833D01*
X33612083Y-56637738D01*
X33726369Y-56637738D01*
X33802559Y-56599642D01*
X33840654Y-56523452D01*
X33840654Y-56485357D01*
X33802559Y-56409166D01*
X33726369Y-56371071D01*
X33612083Y-56371071D01*
X33535892Y-56409166D01*
X33154940Y-56904404D02*
X33154940Y-56371071D01*
X33154940Y-56104404D02*
X33193035Y-56142500D01*
X33154940Y-56180595D01*
X33116845Y-56142500D01*
X33154940Y-56104404D01*
X33154940Y-56180595D01*
X32431130Y-56371071D02*
X32431130Y-57018690D01*
X32469226Y-57094880D01*
X32507321Y-57132976D01*
X32583511Y-57171071D01*
X32697797Y-57171071D01*
X32773988Y-57132976D01*
X32431130Y-56866309D02*
X32507321Y-56904404D01*
X32659702Y-56904404D01*
X32735892Y-56866309D01*
X32773988Y-56828214D01*
X32812083Y-56752023D01*
X32812083Y-56523452D01*
X32773988Y-56447261D01*
X32735892Y-56409166D01*
X32659702Y-56371071D01*
X32507321Y-56371071D01*
X32431130Y-56409166D01*
X32050178Y-56371071D02*
X32050178Y-56904404D01*
X32050178Y-56447261D02*
X32012083Y-56409166D01*
X31935892Y-56371071D01*
X31821607Y-56371071D01*
X31745416Y-56409166D01*
X31707321Y-56485357D01*
X31707321Y-56904404D01*
X31326369Y-56828214D02*
X31288273Y-56866309D01*
X31326369Y-56904404D01*
X31364464Y-56866309D01*
X31326369Y-56828214D01*
X31326369Y-56904404D01*
X31326369Y-56409166D02*
X31288273Y-56447261D01*
X31326369Y-56485357D01*
X31364464Y-56447261D01*
X31326369Y-56409166D01*
X31326369Y-56485357D01*
X30335892Y-56904404D02*
X30335892Y-56104404D01*
X29878749Y-56904404D02*
X30221607Y-56447261D01*
X29878749Y-56104404D02*
X30335892Y-56561547D01*
X29535892Y-56904404D02*
X29535892Y-56371071D01*
X29535892Y-56104404D02*
X29573988Y-56142500D01*
X29535892Y-56180595D01*
X29497797Y-56142500D01*
X29535892Y-56104404D01*
X29535892Y-56180595D01*
X28812083Y-56904404D02*
X28812083Y-56485357D01*
X28850178Y-56409166D01*
X28926369Y-56371071D01*
X29078749Y-56371071D01*
X29154940Y-56409166D01*
X28812083Y-56866309D02*
X28888273Y-56904404D01*
X29078749Y-56904404D01*
X29154940Y-56866309D01*
X29193035Y-56790119D01*
X29193035Y-56713928D01*
X29154940Y-56637738D01*
X29078749Y-56599642D01*
X28888273Y-56599642D01*
X28812083Y-56561547D01*
X28431130Y-56371071D02*
X28431130Y-56904404D01*
X28431130Y-56447261D02*
X28393035Y-56409166D01*
X28316845Y-56371071D01*
X28202559Y-56371071D01*
X28126369Y-56409166D01*
X28088273Y-56485357D01*
X28088273Y-56904404D01*
X27212083Y-56104404D02*
X26945416Y-56904404D01*
X26678750Y-56104404D01*
X26412083Y-56904404D02*
X26412083Y-56371071D01*
X26412083Y-56104404D02*
X26450178Y-56142500D01*
X26412083Y-56180595D01*
X26373988Y-56142500D01*
X26412083Y-56104404D01*
X26412083Y-56180595D01*
X25916845Y-56904404D02*
X25993035Y-56866309D01*
X26031130Y-56790119D01*
X26031130Y-56104404D01*
X25612083Y-56904404D02*
X25612083Y-56104404D01*
X25269226Y-56904404D02*
X25269226Y-56485357D01*
X25307321Y-56409166D01*
X25383511Y-56371071D01*
X25497797Y-56371071D01*
X25573988Y-56409166D01*
X25612083Y-56447261D01*
X24545416Y-56904404D02*
X24545416Y-56485357D01*
X24583511Y-56409166D01*
X24659702Y-56371071D01*
X24812083Y-56371071D01*
X24888273Y-56409166D01*
X24545416Y-56866309D02*
X24621607Y-56904404D01*
X24812083Y-56904404D01*
X24888273Y-56866309D01*
X24926369Y-56790119D01*
X24926369Y-56713928D01*
X24888273Y-56637738D01*
X24812083Y-56599642D01*
X24621607Y-56599642D01*
X24545416Y-56561547D01*
X23821607Y-56371071D02*
X23821607Y-56904404D01*
X24164464Y-56371071D02*
X24164464Y-56790119D01*
X24126369Y-56866309D01*
X24050178Y-56904404D01*
X23935892Y-56904404D01*
X23859702Y-56866309D01*
X23821607Y-56828214D01*
X23135892Y-56866309D02*
X23212083Y-56904404D01*
X23364464Y-56904404D01*
X23440654Y-56866309D01*
X23478750Y-56790119D01*
X23478750Y-56485357D01*
X23440654Y-56409166D01*
X23364464Y-56371071D01*
X23212083Y-56371071D01*
X23135892Y-56409166D01*
X23097797Y-56485357D01*
X23097797Y-56561547D01*
X23478750Y-56637738D01*
X22754940Y-56904404D02*
X22754940Y-56371071D01*
X22754940Y-56523452D02*
X22716845Y-56447261D01*
X22678750Y-56409166D01*
X22602559Y-56371071D01*
X22526369Y-56371071D01*
D11*
X65420476Y-55412142D02*
X65468095Y-55459761D01*
X65610952Y-55507380D01*
X65706190Y-55507380D01*
X65849047Y-55459761D01*
X65944285Y-55364523D01*
X65991904Y-55269285D01*
X66039523Y-55078809D01*
X66039523Y-54935952D01*
X65991904Y-54745476D01*
X65944285Y-54650238D01*
X65849047Y-54555000D01*
X65706190Y-54507380D01*
X65610952Y-54507380D01*
X65468095Y-54555000D01*
X65420476Y-54602619D01*
X64849047Y-55507380D02*
X64944285Y-55459761D01*
X64991904Y-55412142D01*
X65039523Y-55316904D01*
X65039523Y-55031190D01*
X64991904Y-54935952D01*
X64944285Y-54888333D01*
X64849047Y-54840714D01*
X64706190Y-54840714D01*
X64610952Y-54888333D01*
X64563333Y-54935952D01*
X64515714Y-55031190D01*
X64515714Y-55316904D01*
X64563333Y-55412142D01*
X64610952Y-55459761D01*
X64706190Y-55507380D01*
X64849047Y-55507380D01*
X64087142Y-54840714D02*
X64087142Y-55507380D01*
X64087142Y-54935952D02*
X64039523Y-54888333D01*
X63944285Y-54840714D01*
X63801428Y-54840714D01*
X63706190Y-54888333D01*
X63658571Y-54983571D01*
X63658571Y-55507380D01*
X63182380Y-54840714D02*
X63182380Y-55507380D01*
X63182380Y-54935952D02*
X63134761Y-54888333D01*
X63039523Y-54840714D01*
X62896666Y-54840714D01*
X62801428Y-54888333D01*
X62753809Y-54983571D01*
X62753809Y-55507380D01*
X61896666Y-55459761D02*
X61991904Y-55507380D01*
X62182380Y-55507380D01*
X62277619Y-55459761D01*
X62325238Y-55364523D01*
X62325238Y-54983571D01*
X62277619Y-54888333D01*
X62182380Y-54840714D01*
X61991904Y-54840714D01*
X61896666Y-54888333D01*
X61849047Y-54983571D01*
X61849047Y-55078809D01*
X62325238Y-55174047D01*
X60991904Y-55459761D02*
X61087142Y-55507380D01*
X61277619Y-55507380D01*
X61372857Y-55459761D01*
X61420476Y-55412142D01*
X61468095Y-55316904D01*
X61468095Y-55031190D01*
X61420476Y-54935952D01*
X61372857Y-54888333D01*
X61277619Y-54840714D01*
X61087142Y-54840714D01*
X60991904Y-54888333D01*
X60706190Y-54840714D02*
X60325238Y-54840714D01*
X60563333Y-54507380D02*
X60563333Y-55364523D01*
X60515714Y-55459761D01*
X60420476Y-55507380D01*
X60325238Y-55507380D01*
X59849047Y-55507380D02*
X59944285Y-55459761D01*
X59991904Y-55412142D01*
X60039523Y-55316904D01*
X60039523Y-55031190D01*
X59991904Y-54935952D01*
X59944285Y-54888333D01*
X59849047Y-54840714D01*
X59706190Y-54840714D01*
X59610952Y-54888333D01*
X59563333Y-54935952D01*
X59515714Y-55031190D01*
X59515714Y-55316904D01*
X59563333Y-55412142D01*
X59610952Y-55459761D01*
X59706190Y-55507380D01*
X59849047Y-55507380D01*
X59087142Y-55507380D02*
X59087142Y-54840714D01*
X59087142Y-55031190D02*
X59039523Y-54935952D01*
X58991904Y-54888333D01*
X58896666Y-54840714D01*
X58801428Y-54840714D01*
X58468095Y-55412142D02*
X58420476Y-55459761D01*
X58468095Y-55507380D01*
X58515714Y-55459761D01*
X58468095Y-55412142D01*
X58468095Y-55507380D01*
X58468095Y-54888333D02*
X58420476Y-54935952D01*
X58468095Y-54983571D01*
X58515714Y-54935952D01*
X58468095Y-54888333D01*
X58468095Y-54983571D01*
X81230000Y-57157380D02*
X81801428Y-57157380D01*
X81515714Y-57157380D02*
X81515714Y-56157380D01*
X81610952Y-56300238D01*
X81706190Y-56395476D01*
X81801428Y-56443095D01*
X80801428Y-57062142D02*
X80753809Y-57109761D01*
X80801428Y-57157380D01*
X80849047Y-57109761D01*
X80801428Y-57062142D01*
X80801428Y-57157380D01*
X80801428Y-56538333D02*
X80753809Y-56585952D01*
X80801428Y-56633571D01*
X80849047Y-56585952D01*
X80801428Y-56538333D01*
X80801428Y-56633571D01*
X79563333Y-57157380D02*
X79563333Y-56157380D01*
X79182380Y-56157380D01*
X79087142Y-56205000D01*
X79039523Y-56252619D01*
X78991904Y-56347857D01*
X78991904Y-56490714D01*
X79039523Y-56585952D01*
X79087142Y-56633571D01*
X79182380Y-56681190D01*
X79563333Y-56681190D01*
X78420476Y-57157380D02*
X78515714Y-57109761D01*
X78563333Y-57062142D01*
X78610952Y-56966904D01*
X78610952Y-56681190D01*
X78563333Y-56585952D01*
X78515714Y-56538333D01*
X78420476Y-56490714D01*
X78277619Y-56490714D01*
X78182380Y-56538333D01*
X78134761Y-56585952D01*
X78087142Y-56681190D01*
X78087142Y-56966904D01*
X78134761Y-57062142D01*
X78182380Y-57109761D01*
X78277619Y-57157380D01*
X78420476Y-57157380D01*
X77753809Y-56490714D02*
X77563333Y-57157380D01*
X77372857Y-56681190D01*
X77182380Y-57157380D01*
X76991904Y-56490714D01*
X76230000Y-57109761D02*
X76325238Y-57157380D01*
X76515714Y-57157380D01*
X76610952Y-57109761D01*
X76658571Y-57014523D01*
X76658571Y-56633571D01*
X76610952Y-56538333D01*
X76515714Y-56490714D01*
X76325238Y-56490714D01*
X76230000Y-56538333D01*
X76182380Y-56633571D01*
X76182380Y-56728809D01*
X76658571Y-56824047D01*
X75753809Y-57157380D02*
X75753809Y-56490714D01*
X75753809Y-56681190D02*
X75706190Y-56585952D01*
X75658571Y-56538333D01*
X75563333Y-56490714D01*
X75468095Y-56490714D01*
X74134761Y-57490714D02*
X74134761Y-56062142D01*
X72706190Y-56252619D02*
X72658571Y-56205000D01*
X72563333Y-56157380D01*
X72325238Y-56157380D01*
X72230000Y-56205000D01*
X72182380Y-56252619D01*
X72134761Y-56347857D01*
X72134761Y-56443095D01*
X72182380Y-56585952D01*
X72753809Y-57157380D01*
X72134761Y-57157380D01*
X71706190Y-57062142D02*
X71658571Y-57109761D01*
X71706190Y-57157380D01*
X71753809Y-57109761D01*
X71706190Y-57062142D01*
X71706190Y-57157380D01*
X71706190Y-56538333D02*
X71658571Y-56585952D01*
X71706190Y-56633571D01*
X71753809Y-56585952D01*
X71706190Y-56538333D01*
X71706190Y-56633571D01*
X69944285Y-56205000D02*
X70039523Y-56157380D01*
X70182380Y-56157380D01*
X70325238Y-56205000D01*
X70420476Y-56300238D01*
X70468095Y-56395476D01*
X70515714Y-56585952D01*
X70515714Y-56728809D01*
X70468095Y-56919285D01*
X70420476Y-57014523D01*
X70325238Y-57109761D01*
X70182380Y-57157380D01*
X70087142Y-57157380D01*
X69944285Y-57109761D01*
X69896666Y-57062142D01*
X69896666Y-56728809D01*
X70087142Y-56728809D01*
X69468095Y-57157380D02*
X69468095Y-56157380D01*
X68896666Y-57157380D01*
X68896666Y-56157380D01*
X68420476Y-57157380D02*
X68420476Y-56157380D01*
X68182380Y-56157380D01*
X68039523Y-56205000D01*
X67944285Y-56300238D01*
X67896666Y-56395476D01*
X67849047Y-56585952D01*
X67849047Y-56728809D01*
X67896666Y-56919285D01*
X67944285Y-57014523D01*
X68039523Y-57109761D01*
X68182380Y-57157380D01*
X68420476Y-57157380D01*
X66420476Y-57490714D02*
X66420476Y-56062142D01*
X65039523Y-56157380D02*
X64420476Y-56157380D01*
X64753809Y-56538333D01*
X64610952Y-56538333D01*
X64515714Y-56585952D01*
X64468095Y-56633571D01*
X64420476Y-56728809D01*
X64420476Y-56966904D01*
X64468095Y-57062142D01*
X64515714Y-57109761D01*
X64610952Y-57157380D01*
X64896666Y-57157380D01*
X64991904Y-57109761D01*
X65039523Y-57062142D01*
X63991904Y-57062142D02*
X63944285Y-57109761D01*
X63991904Y-57157380D01*
X64039523Y-57109761D01*
X63991904Y-57062142D01*
X63991904Y-57157380D01*
X63991904Y-56538333D02*
X63944285Y-56585952D01*
X63991904Y-56633571D01*
X64039523Y-56585952D01*
X63991904Y-56538333D01*
X63991904Y-56633571D01*
X62420476Y-56633571D02*
X62753809Y-56633571D01*
X62753809Y-57157380D02*
X62753809Y-56157380D01*
X62277619Y-56157380D01*
X61468095Y-57157380D02*
X61468095Y-56633571D01*
X61515714Y-56538333D01*
X61610952Y-56490714D01*
X61801428Y-56490714D01*
X61896666Y-56538333D01*
X61468095Y-57109761D02*
X61563333Y-57157380D01*
X61801428Y-57157380D01*
X61896666Y-57109761D01*
X61944285Y-57014523D01*
X61944285Y-56919285D01*
X61896666Y-56824047D01*
X61801428Y-56776428D01*
X61563333Y-56776428D01*
X61468095Y-56728809D01*
X60991904Y-56490714D02*
X60991904Y-57157380D01*
X60991904Y-56585952D02*
X60944285Y-56538333D01*
X60849047Y-56490714D01*
X60706190Y-56490714D01*
X60610952Y-56538333D01*
X60563333Y-56633571D01*
X60563333Y-57157380D01*
X60087142Y-56776428D02*
X59325238Y-56776428D01*
X59706190Y-57157380D02*
X59706190Y-56395476D01*
X57849047Y-57490714D02*
X57849047Y-56062142D01*
X55944285Y-56490714D02*
X55944285Y-57157380D01*
X56182380Y-56109761D02*
X56420476Y-56824047D01*
X55801428Y-56824047D01*
X55420476Y-57062142D02*
X55372857Y-57109761D01*
X55420476Y-57157380D01*
X55468095Y-57109761D01*
X55420476Y-57062142D01*
X55420476Y-57157380D01*
X55420476Y-56538333D02*
X55372857Y-56585952D01*
X55420476Y-56633571D01*
X55468095Y-56585952D01*
X55420476Y-56538333D01*
X55420476Y-56633571D01*
X53849047Y-56633571D02*
X54182380Y-56633571D01*
X54182380Y-57157380D02*
X54182380Y-56157380D01*
X53706190Y-56157380D01*
X52896666Y-57157380D02*
X52896666Y-56633571D01*
X52944285Y-56538333D01*
X53039523Y-56490714D01*
X53230000Y-56490714D01*
X53325238Y-56538333D01*
X52896666Y-57109761D02*
X52991904Y-57157380D01*
X53230000Y-57157380D01*
X53325238Y-57109761D01*
X53372857Y-57014523D01*
X53372857Y-56919285D01*
X53325238Y-56824047D01*
X53230000Y-56776428D01*
X52991904Y-56776428D01*
X52896666Y-56728809D01*
X52420476Y-56490714D02*
X52420476Y-57157380D01*
X52420476Y-56585952D02*
X52372857Y-56538333D01*
X52277619Y-56490714D01*
X52134761Y-56490714D01*
X52039523Y-56538333D01*
X51991904Y-56633571D01*
X51991904Y-57157380D01*
X51515714Y-56776428D02*
X50753809Y-56776428D01*
X49277619Y-57490714D02*
X49277619Y-56062142D01*
X47325238Y-56157380D02*
X47801428Y-56157380D01*
X47849047Y-56633571D01*
X47801428Y-56585952D01*
X47706190Y-56538333D01*
X47468095Y-56538333D01*
X47372857Y-56585952D01*
X47325238Y-56633571D01*
X47277619Y-56728809D01*
X47277619Y-56966904D01*
X47325238Y-57062142D01*
X47372857Y-57109761D01*
X47468095Y-57157380D01*
X47706190Y-57157380D01*
X47801428Y-57109761D01*
X47849047Y-57062142D01*
X46849047Y-57062142D02*
X46801428Y-57109761D01*
X46849047Y-57157380D01*
X46896666Y-57109761D01*
X46849047Y-57062142D01*
X46849047Y-57157380D01*
X46849047Y-56538333D02*
X46801428Y-56585952D01*
X46849047Y-56633571D01*
X46896666Y-56585952D01*
X46849047Y-56538333D01*
X46849047Y-56633571D01*
X45610952Y-57157380D02*
X45610952Y-56157380D01*
X45372857Y-56157380D01*
X45230000Y-56205000D01*
X45134761Y-56300238D01*
X45087142Y-56395476D01*
X45039523Y-56585952D01*
X45039523Y-56728809D01*
X45087142Y-56919285D01*
X45134761Y-57014523D01*
X45230000Y-57109761D01*
X45372857Y-57157380D01*
X45610952Y-57157380D01*
X44182380Y-57157380D02*
X44182380Y-56633571D01*
X44230000Y-56538333D01*
X44325238Y-56490714D01*
X44515714Y-56490714D01*
X44610952Y-56538333D01*
X44182380Y-57109761D02*
X44277619Y-57157380D01*
X44515714Y-57157380D01*
X44610952Y-57109761D01*
X44658571Y-57014523D01*
X44658571Y-56919285D01*
X44610952Y-56824047D01*
X44515714Y-56776428D01*
X44277619Y-56776428D01*
X44182380Y-56728809D01*
X43849047Y-56490714D02*
X43468095Y-56490714D01*
X43706190Y-56157380D02*
X43706190Y-57014523D01*
X43658571Y-57109761D01*
X43563333Y-57157380D01*
X43468095Y-57157380D01*
X42706190Y-57157380D02*
X42706190Y-56633571D01*
X42753809Y-56538333D01*
X42849047Y-56490714D01*
X43039523Y-56490714D01*
X43134761Y-56538333D01*
X42706190Y-57109761D02*
X42801428Y-57157380D01*
X43039523Y-57157380D01*
X43134761Y-57109761D01*
X43182380Y-57014523D01*
X43182380Y-56919285D01*
X43134761Y-56824047D01*
X43039523Y-56776428D01*
X42801428Y-56776428D01*
X42706190Y-56728809D01*
X22621904Y-50252380D02*
X23098095Y-50252380D01*
X23145714Y-50728571D01*
X23098095Y-50680952D01*
X23002857Y-50633333D01*
X22764761Y-50633333D01*
X22669523Y-50680952D01*
X22621904Y-50728571D01*
X22574285Y-50823809D01*
X22574285Y-51061904D01*
X22621904Y-51157142D01*
X22669523Y-51204761D01*
X22764761Y-51252380D01*
X23002857Y-51252380D01*
X23098095Y-51204761D01*
X23145714Y-51157142D01*
X22574285Y-23312380D02*
X23145714Y-23312380D01*
X22860000Y-23312380D02*
X22860000Y-22312380D01*
X22955238Y-22455238D01*
X23050476Y-22550476D01*
X23145714Y-22598095D01*
D12*
%TO.C,R6*%
X26110000Y-21606252D02*
X26110000Y-21083748D01*
X24690000Y-21606252D02*
X24690000Y-21083748D01*
%TO.C,R5*%
X24690000Y-51808748D02*
X24690000Y-52331252D01*
X26110000Y-51808748D02*
X26110000Y-52331252D01*
%TO.C,J1*%
X29620000Y-31830000D02*
G75*
G03*
X29620000Y-31830000I-1680000J0D01*
G01*
X29620000Y-36830000D02*
G75*
G03*
X29620000Y-36830000I-1680000J0D01*
G01*
X29620000Y-41830000D02*
G75*
G03*
X29620000Y-41830000I-1680000J0D01*
G01*
X29620000Y-46830000D02*
G75*
G03*
X29620000Y-46830000I-1680000J0D01*
G01*
X32040000Y-24270000D02*
X32040000Y-49390000D01*
X30540000Y-24270000D02*
X30540000Y-49390000D01*
X25639000Y-24270000D02*
X25639000Y-49390000D01*
X22679000Y-24270000D02*
X22679000Y-49390000D01*
X32600000Y-24270000D02*
X32600000Y-49390000D01*
X22679000Y-24270000D02*
X32600000Y-24270000D01*
X22679000Y-49390000D02*
X32600000Y-49390000D01*
X26871000Y-33105000D02*
X26917000Y-33058000D01*
X29179000Y-30796000D02*
X29214000Y-30761000D01*
X26665000Y-32900000D02*
X26701000Y-32865000D01*
X28963000Y-30603000D02*
X29009000Y-30556000D01*
X26871000Y-38105000D02*
X26917000Y-38058000D01*
X29179000Y-35796000D02*
X29214000Y-35761000D01*
X26665000Y-37900000D02*
X26701000Y-37865000D01*
X28963000Y-35603000D02*
X29009000Y-35556000D01*
X26871000Y-43105000D02*
X26917000Y-43058000D01*
X29179000Y-40796000D02*
X29214000Y-40761000D01*
X26665000Y-42900000D02*
X26701000Y-42865000D01*
X28963000Y-40603000D02*
X29009000Y-40556000D01*
X26871000Y-48105000D02*
X26917000Y-48058000D01*
X29179000Y-45796000D02*
X29214000Y-45761000D01*
X26665000Y-47900000D02*
X26701000Y-47865000D01*
X28963000Y-45603000D02*
X29009000Y-45556000D01*
X32100000Y-24030000D02*
X32840000Y-24030000D01*
X32840000Y-24030000D02*
X32840000Y-24530000D01*
X29620253Y-26858805D02*
G75*
G03*
X29475000Y-26146000I-1680253J28805D01*
G01*
X28623042Y-25294574D02*
G75*
G03*
X27256000Y-25295000I-683042J-1535426D01*
G01*
X26404574Y-26146958D02*
G75*
G03*
X26405000Y-27514000I1535426J-683042D01*
G01*
X27256958Y-28365426D02*
G75*
G03*
X28624000Y-28365000I683042J1535426D01*
G01*
X29474756Y-27513318D02*
G75*
G03*
X29620000Y-26830000I-1534756J683318D01*
G01*
%TO.C,D2*%
X30170000Y-20345000D02*
X30170000Y-23205000D01*
X30170000Y-23205000D02*
X28250000Y-23205000D01*
X28250000Y-23205000D02*
X28250000Y-20345000D01*
%TO.C,D1*%
X28250000Y-53070000D02*
X28250000Y-50210000D01*
X28250000Y-50210000D02*
X30170000Y-50210000D01*
X30170000Y-50210000D02*
X30170000Y-53070000D01*
%TO.C,R6*%
D11*
X27502380Y-21178333D02*
X27026190Y-20845000D01*
X27502380Y-20606904D02*
X26502380Y-20606904D01*
X26502380Y-20987857D01*
X26550000Y-21083095D01*
X26597619Y-21130714D01*
X26692857Y-21178333D01*
X26835714Y-21178333D01*
X26930952Y-21130714D01*
X26978571Y-21083095D01*
X27026190Y-20987857D01*
X27026190Y-20606904D01*
X26502380Y-22035476D02*
X26502380Y-21845000D01*
X26550000Y-21749761D01*
X26597619Y-21702142D01*
X26740476Y-21606904D01*
X26930952Y-21559285D01*
X27311904Y-21559285D01*
X27407142Y-21606904D01*
X27454761Y-21654523D01*
X27502380Y-21749761D01*
X27502380Y-21940238D01*
X27454761Y-22035476D01*
X27407142Y-22083095D01*
X27311904Y-22130714D01*
X27073809Y-22130714D01*
X26978571Y-22083095D01*
X26930952Y-22035476D01*
X26883333Y-21940238D01*
X26883333Y-21749761D01*
X26930952Y-21654523D01*
X26978571Y-21606904D01*
X27073809Y-21559285D01*
%TO.C,R5*%
X24202380Y-51903333D02*
X23726190Y-51570000D01*
X24202380Y-51331904D02*
X23202380Y-51331904D01*
X23202380Y-51712857D01*
X23250000Y-51808095D01*
X23297619Y-51855714D01*
X23392857Y-51903333D01*
X23535714Y-51903333D01*
X23630952Y-51855714D01*
X23678571Y-51808095D01*
X23726190Y-51712857D01*
X23726190Y-51331904D01*
X23202380Y-52808095D02*
X23202380Y-52331904D01*
X23678571Y-52284285D01*
X23630952Y-52331904D01*
X23583333Y-52427142D01*
X23583333Y-52665238D01*
X23630952Y-52760476D01*
X23678571Y-52808095D01*
X23773809Y-52855714D01*
X24011904Y-52855714D01*
X24107142Y-52808095D01*
X24154761Y-52760476D01*
X24202380Y-52665238D01*
X24202380Y-52427142D01*
X24154761Y-52331904D01*
X24107142Y-52284285D01*
%TO.C,J1*%
X21132380Y-36496666D02*
X21846666Y-36496666D01*
X21989523Y-36449047D01*
X22084761Y-36353809D01*
X22132380Y-36210952D01*
X22132380Y-36115714D01*
X22132380Y-37496666D02*
X22132380Y-36925238D01*
X22132380Y-37210952D02*
X21132380Y-37210952D01*
X21275238Y-37115714D01*
X21370476Y-37020476D01*
X21418095Y-36925238D01*
%TO.C,D2*%
X31312380Y-20606904D02*
X30312380Y-20606904D01*
X30312380Y-20845000D01*
X30360000Y-20987857D01*
X30455238Y-21083095D01*
X30550476Y-21130714D01*
X30740952Y-21178333D01*
X30883809Y-21178333D01*
X31074285Y-21130714D01*
X31169523Y-21083095D01*
X31264761Y-20987857D01*
X31312380Y-20845000D01*
X31312380Y-20606904D01*
X30407619Y-21559285D02*
X30360000Y-21606904D01*
X30312380Y-21702142D01*
X30312380Y-21940238D01*
X30360000Y-22035476D01*
X30407619Y-22083095D01*
X30502857Y-22130714D01*
X30598095Y-22130714D01*
X30740952Y-22083095D01*
X31312380Y-21511666D01*
X31312380Y-22130714D01*
%TO.C,D1*%
X28012380Y-51331904D02*
X27012380Y-51331904D01*
X27012380Y-51570000D01*
X27060000Y-51712857D01*
X27155238Y-51808095D01*
X27250476Y-51855714D01*
X27440952Y-51903333D01*
X27583809Y-51903333D01*
X27774285Y-51855714D01*
X27869523Y-51808095D01*
X27964761Y-51712857D01*
X28012380Y-51570000D01*
X28012380Y-51331904D01*
X28012380Y-52855714D02*
X28012380Y-52284285D01*
X28012380Y-52570000D02*
X27012380Y-52570000D01*
X27155238Y-52474761D01*
X27250476Y-52379523D01*
X27298095Y-52284285D01*
%TD*%
M02*
