%TF.GenerationSoftware,KiCad,Pcbnew,(5.1.6)-1*%
%TF.CreationDate,2020-10-16T10:26:54-04:00*%
%TF.ProjectId,heater,68656174-6572-42e6-9b69-6361645f7063,rev?*%
%TF.SameCoordinates,Original*%
%TF.FileFunction,Legend,Bot*%
%TF.FilePolarity,Positive*%
%FSLAX46Y46*%
G04 Gerber Fmt 4.6, Leading zero omitted, Abs format (unit mm)*
G04 Created by KiCad (PCBNEW (5.1.6)-1) date 2020-10-16 10:26:54*
%MOMM*%
%LPD*%
G01*
G04 APERTURE LIST*
%ADD10C,0.150000*%
%ADD11C,0.125000*%
%ADD12C,0.120000*%
G04 APERTURE END LIST*
D10*
X73183476Y-22078904D02*
X73183476Y-21278904D01*
X72993000Y-21278904D01*
X72878714Y-21317000D01*
X72802523Y-21393190D01*
X72764428Y-21469380D01*
X72726333Y-21621761D01*
X72726333Y-21736047D01*
X72764428Y-21888428D01*
X72802523Y-21964619D01*
X72878714Y-22040809D01*
X72993000Y-22078904D01*
X73183476Y-22078904D01*
X72459666Y-21278904D02*
X71964428Y-21278904D01*
X72231095Y-21583666D01*
X72116809Y-21583666D01*
X72040619Y-21621761D01*
X72002523Y-21659857D01*
X71964428Y-21736047D01*
X71964428Y-21926523D01*
X72002523Y-22002714D01*
X72040619Y-22040809D01*
X72116809Y-22078904D01*
X72345380Y-22078904D01*
X72421571Y-22040809D01*
X72459666Y-22002714D01*
X71621571Y-22002714D02*
X71583476Y-22040809D01*
X71621571Y-22078904D01*
X71659666Y-22040809D01*
X71621571Y-22002714D01*
X71621571Y-22078904D01*
X71621571Y-21583666D02*
X71583476Y-21621761D01*
X71621571Y-21659857D01*
X71659666Y-21621761D01*
X71621571Y-21583666D01*
X71621571Y-21659857D01*
X70212047Y-22078904D02*
X70669190Y-22078904D01*
X70440619Y-22078904D02*
X70440619Y-21278904D01*
X70516809Y-21393190D01*
X70592999Y-21469380D01*
X70669190Y-21507476D01*
X69907285Y-21355095D02*
X69869190Y-21317000D01*
X69792999Y-21278904D01*
X69602523Y-21278904D01*
X69526333Y-21317000D01*
X69488238Y-21355095D01*
X69450142Y-21431285D01*
X69450142Y-21507476D01*
X69488238Y-21621761D01*
X69945380Y-22078904D01*
X69450142Y-22078904D01*
X69221571Y-21278904D02*
X68954904Y-22078904D01*
X68688238Y-21278904D01*
X61277142Y-21951904D02*
X61277142Y-21151904D01*
X61086666Y-21151904D01*
X60972380Y-21190000D01*
X60896190Y-21266190D01*
X60858095Y-21342380D01*
X60820000Y-21494761D01*
X60820000Y-21609047D01*
X60858095Y-21761428D01*
X60896190Y-21837619D01*
X60972380Y-21913809D01*
X61086666Y-21951904D01*
X61277142Y-21951904D01*
X60515238Y-21228095D02*
X60477142Y-21190000D01*
X60400952Y-21151904D01*
X60210476Y-21151904D01*
X60134285Y-21190000D01*
X60096190Y-21228095D01*
X60058095Y-21304285D01*
X60058095Y-21380476D01*
X60096190Y-21494761D01*
X60553333Y-21951904D01*
X60058095Y-21951904D01*
X59715238Y-21875714D02*
X59677142Y-21913809D01*
X59715238Y-21951904D01*
X59753333Y-21913809D01*
X59715238Y-21875714D01*
X59715238Y-21951904D01*
X59715238Y-21456666D02*
X59677142Y-21494761D01*
X59715238Y-21532857D01*
X59753333Y-21494761D01*
X59715238Y-21456666D01*
X59715238Y-21532857D01*
X58724761Y-21951904D02*
X58724761Y-21151904D01*
X58420000Y-21151904D01*
X58343809Y-21190000D01*
X58305714Y-21228095D01*
X58267619Y-21304285D01*
X58267619Y-21418571D01*
X58305714Y-21494761D01*
X58343809Y-21532857D01*
X58420000Y-21570952D01*
X58724761Y-21570952D01*
X57810476Y-21951904D02*
X57886666Y-21913809D01*
X57924761Y-21875714D01*
X57962857Y-21799523D01*
X57962857Y-21570952D01*
X57924761Y-21494761D01*
X57886666Y-21456666D01*
X57810476Y-21418571D01*
X57696190Y-21418571D01*
X57620000Y-21456666D01*
X57581904Y-21494761D01*
X57543809Y-21570952D01*
X57543809Y-21799523D01*
X57581904Y-21875714D01*
X57620000Y-21913809D01*
X57696190Y-21951904D01*
X57810476Y-21951904D01*
X57277142Y-21418571D02*
X57124761Y-21951904D01*
X56972380Y-21570952D01*
X56820000Y-21951904D01*
X56667619Y-21418571D01*
X56058095Y-21913809D02*
X56134285Y-21951904D01*
X56286666Y-21951904D01*
X56362857Y-21913809D01*
X56400952Y-21837619D01*
X56400952Y-21532857D01*
X56362857Y-21456666D01*
X56286666Y-21418571D01*
X56134285Y-21418571D01*
X56058095Y-21456666D01*
X56020000Y-21532857D01*
X56020000Y-21609047D01*
X56400952Y-21685238D01*
X55677142Y-21951904D02*
X55677142Y-21418571D01*
X55677142Y-21570952D02*
X55639047Y-21494761D01*
X55600952Y-21456666D01*
X55524761Y-21418571D01*
X55448571Y-21418571D01*
X50088285Y-21951904D02*
X50088285Y-21151904D01*
X49897809Y-21151904D01*
X49783523Y-21190000D01*
X49707333Y-21266190D01*
X49669238Y-21342380D01*
X49631142Y-21494761D01*
X49631142Y-21609047D01*
X49669238Y-21761428D01*
X49707333Y-21837619D01*
X49783523Y-21913809D01*
X49897809Y-21951904D01*
X50088285Y-21951904D01*
X48869238Y-21951904D02*
X49326380Y-21951904D01*
X49097809Y-21951904D02*
X49097809Y-21151904D01*
X49174000Y-21266190D01*
X49250190Y-21342380D01*
X49326380Y-21380476D01*
X48526380Y-21875714D02*
X48488285Y-21913809D01*
X48526380Y-21951904D01*
X48564476Y-21913809D01*
X48526380Y-21875714D01*
X48526380Y-21951904D01*
X48526380Y-21456666D02*
X48488285Y-21494761D01*
X48526380Y-21532857D01*
X48564476Y-21494761D01*
X48526380Y-21456666D01*
X48526380Y-21532857D01*
X47535904Y-21951904D02*
X47535904Y-21151904D01*
X47535904Y-21532857D02*
X47078761Y-21532857D01*
X47078761Y-21951904D02*
X47078761Y-21151904D01*
X46393047Y-21913809D02*
X46469238Y-21951904D01*
X46621619Y-21951904D01*
X46697809Y-21913809D01*
X46735904Y-21837619D01*
X46735904Y-21532857D01*
X46697809Y-21456666D01*
X46621619Y-21418571D01*
X46469238Y-21418571D01*
X46393047Y-21456666D01*
X46354952Y-21532857D01*
X46354952Y-21609047D01*
X46735904Y-21685238D01*
X45669238Y-21951904D02*
X45669238Y-21532857D01*
X45707333Y-21456666D01*
X45783523Y-21418571D01*
X45935904Y-21418571D01*
X46012095Y-21456666D01*
X45669238Y-21913809D02*
X45745428Y-21951904D01*
X45935904Y-21951904D01*
X46012095Y-21913809D01*
X46050190Y-21837619D01*
X46050190Y-21761428D01*
X46012095Y-21685238D01*
X45935904Y-21647142D01*
X45745428Y-21647142D01*
X45669238Y-21609047D01*
X45402571Y-21418571D02*
X45097809Y-21418571D01*
X45288285Y-21151904D02*
X45288285Y-21837619D01*
X45250190Y-21913809D01*
X45174000Y-21951904D01*
X45097809Y-21951904D01*
X44526380Y-21913809D02*
X44602571Y-21951904D01*
X44754952Y-21951904D01*
X44831142Y-21913809D01*
X44869238Y-21837619D01*
X44869238Y-21532857D01*
X44831142Y-21456666D01*
X44754952Y-21418571D01*
X44602571Y-21418571D01*
X44526380Y-21456666D01*
X44488285Y-21532857D01*
X44488285Y-21609047D01*
X44869238Y-21685238D01*
X44145428Y-21951904D02*
X44145428Y-21418571D01*
X44145428Y-21570952D02*
X44107333Y-21494761D01*
X44069238Y-21456666D01*
X43993047Y-21418571D01*
X43916857Y-21418571D01*
X42888285Y-21151904D02*
X42735904Y-21151904D01*
X42659714Y-21190000D01*
X42583523Y-21266190D01*
X42545428Y-21418571D01*
X42545428Y-21685238D01*
X42583523Y-21837619D01*
X42659714Y-21913809D01*
X42735904Y-21951904D01*
X42888285Y-21951904D01*
X42964476Y-21913809D01*
X43040666Y-21837619D01*
X43078761Y-21685238D01*
X43078761Y-21418571D01*
X43040666Y-21266190D01*
X42964476Y-21190000D01*
X42888285Y-21151904D01*
X42202571Y-21418571D02*
X42202571Y-21951904D01*
X42202571Y-21494761D02*
X42164476Y-21456666D01*
X42088285Y-21418571D01*
X41974000Y-21418571D01*
X41897809Y-21456666D01*
X41859714Y-21532857D01*
X41859714Y-21951904D01*
D11*
X35402559Y-54779404D02*
X35135892Y-55579404D01*
X34869226Y-54779404D01*
X34602559Y-55579404D02*
X34602559Y-54779404D01*
X34221607Y-55579404D02*
X34221607Y-54779404D01*
X33916845Y-54779404D01*
X33840654Y-54817500D01*
X33802559Y-54855595D01*
X33764464Y-54931785D01*
X33764464Y-55046071D01*
X33802559Y-55122261D01*
X33840654Y-55160357D01*
X33916845Y-55198452D01*
X34221607Y-55198452D01*
X33421607Y-55274642D02*
X32812083Y-55274642D01*
X32050178Y-55579404D02*
X32431130Y-55579404D01*
X32431130Y-54779404D01*
X31783511Y-55160357D02*
X31516845Y-55160357D01*
X31402559Y-55579404D02*
X31783511Y-55579404D01*
X31783511Y-54779404D01*
X31402559Y-54779404D01*
X31097797Y-55541309D02*
X30983511Y-55579404D01*
X30793035Y-55579404D01*
X30716845Y-55541309D01*
X30678750Y-55503214D01*
X30640654Y-55427023D01*
X30640654Y-55350833D01*
X30678750Y-55274642D01*
X30716845Y-55236547D01*
X30793035Y-55198452D01*
X30945416Y-55160357D01*
X31021607Y-55122261D01*
X31059702Y-55084166D01*
X31097797Y-55007976D01*
X31097797Y-54931785D01*
X31059702Y-54855595D01*
X31021607Y-54817500D01*
X30945416Y-54779404D01*
X30754940Y-54779404D01*
X30640654Y-54817500D01*
X29688273Y-55579404D02*
X29688273Y-54779404D01*
X29688273Y-55160357D02*
X29231130Y-55160357D01*
X29231130Y-55579404D02*
X29231130Y-54779404D01*
X28545416Y-55541309D02*
X28621607Y-55579404D01*
X28773988Y-55579404D01*
X28850178Y-55541309D01*
X28888273Y-55465119D01*
X28888273Y-55160357D01*
X28850178Y-55084166D01*
X28773988Y-55046071D01*
X28621607Y-55046071D01*
X28545416Y-55084166D01*
X28507321Y-55160357D01*
X28507321Y-55236547D01*
X28888273Y-55312738D01*
X27821607Y-55579404D02*
X27821607Y-55160357D01*
X27859702Y-55084166D01*
X27935892Y-55046071D01*
X28088273Y-55046071D01*
X28164464Y-55084166D01*
X27821607Y-55541309D02*
X27897797Y-55579404D01*
X28088273Y-55579404D01*
X28164464Y-55541309D01*
X28202559Y-55465119D01*
X28202559Y-55388928D01*
X28164464Y-55312738D01*
X28088273Y-55274642D01*
X27897797Y-55274642D01*
X27821607Y-55236547D01*
X27554940Y-55046071D02*
X27250178Y-55046071D01*
X27440654Y-54779404D02*
X27440654Y-55465119D01*
X27402559Y-55541309D01*
X27326369Y-55579404D01*
X27250178Y-55579404D01*
X26678750Y-55541309D02*
X26754940Y-55579404D01*
X26907321Y-55579404D01*
X26983511Y-55541309D01*
X27021607Y-55465119D01*
X27021607Y-55160357D01*
X26983511Y-55084166D01*
X26907321Y-55046071D01*
X26754940Y-55046071D01*
X26678750Y-55084166D01*
X26640654Y-55160357D01*
X26640654Y-55236547D01*
X27021607Y-55312738D01*
X26297797Y-55579404D02*
X26297797Y-55046071D01*
X26297797Y-55198452D02*
X26259702Y-55122261D01*
X26221607Y-55084166D01*
X26145416Y-55046071D01*
X26069226Y-55046071D01*
X35288273Y-56904404D02*
X35288273Y-56104404D01*
X35097797Y-56104404D01*
X34983511Y-56142500D01*
X34907321Y-56218690D01*
X34869226Y-56294880D01*
X34831130Y-56447261D01*
X34831130Y-56561547D01*
X34869226Y-56713928D01*
X34907321Y-56790119D01*
X34983511Y-56866309D01*
X35097797Y-56904404D01*
X35288273Y-56904404D01*
X34183511Y-56866309D02*
X34259702Y-56904404D01*
X34412083Y-56904404D01*
X34488273Y-56866309D01*
X34526369Y-56790119D01*
X34526369Y-56485357D01*
X34488273Y-56409166D01*
X34412083Y-56371071D01*
X34259702Y-56371071D01*
X34183511Y-56409166D01*
X34145416Y-56485357D01*
X34145416Y-56561547D01*
X34526369Y-56637738D01*
X33840654Y-56866309D02*
X33764464Y-56904404D01*
X33612083Y-56904404D01*
X33535892Y-56866309D01*
X33497797Y-56790119D01*
X33497797Y-56752023D01*
X33535892Y-56675833D01*
X33612083Y-56637738D01*
X33726369Y-56637738D01*
X33802559Y-56599642D01*
X33840654Y-56523452D01*
X33840654Y-56485357D01*
X33802559Y-56409166D01*
X33726369Y-56371071D01*
X33612083Y-56371071D01*
X33535892Y-56409166D01*
X33154940Y-56904404D02*
X33154940Y-56371071D01*
X33154940Y-56104404D02*
X33193035Y-56142500D01*
X33154940Y-56180595D01*
X33116845Y-56142500D01*
X33154940Y-56104404D01*
X33154940Y-56180595D01*
X32431130Y-56371071D02*
X32431130Y-57018690D01*
X32469226Y-57094880D01*
X32507321Y-57132976D01*
X32583511Y-57171071D01*
X32697797Y-57171071D01*
X32773988Y-57132976D01*
X32431130Y-56866309D02*
X32507321Y-56904404D01*
X32659702Y-56904404D01*
X32735892Y-56866309D01*
X32773988Y-56828214D01*
X32812083Y-56752023D01*
X32812083Y-56523452D01*
X32773988Y-56447261D01*
X32735892Y-56409166D01*
X32659702Y-56371071D01*
X32507321Y-56371071D01*
X32431130Y-56409166D01*
X32050178Y-56371071D02*
X32050178Y-56904404D01*
X32050178Y-56447261D02*
X32012083Y-56409166D01*
X31935892Y-56371071D01*
X31821607Y-56371071D01*
X31745416Y-56409166D01*
X31707321Y-56485357D01*
X31707321Y-56904404D01*
X31326369Y-56828214D02*
X31288273Y-56866309D01*
X31326369Y-56904404D01*
X31364464Y-56866309D01*
X31326369Y-56828214D01*
X31326369Y-56904404D01*
X31326369Y-56409166D02*
X31288273Y-56447261D01*
X31326369Y-56485357D01*
X31364464Y-56447261D01*
X31326369Y-56409166D01*
X31326369Y-56485357D01*
X30335892Y-56904404D02*
X30335892Y-56104404D01*
X29878749Y-56904404D02*
X30221607Y-56447261D01*
X29878749Y-56104404D02*
X30335892Y-56561547D01*
X29535892Y-56904404D02*
X29535892Y-56371071D01*
X29535892Y-56104404D02*
X29573988Y-56142500D01*
X29535892Y-56180595D01*
X29497797Y-56142500D01*
X29535892Y-56104404D01*
X29535892Y-56180595D01*
X28812083Y-56904404D02*
X28812083Y-56485357D01*
X28850178Y-56409166D01*
X28926369Y-56371071D01*
X29078749Y-56371071D01*
X29154940Y-56409166D01*
X28812083Y-56866309D02*
X28888273Y-56904404D01*
X29078749Y-56904404D01*
X29154940Y-56866309D01*
X29193035Y-56790119D01*
X29193035Y-56713928D01*
X29154940Y-56637738D01*
X29078749Y-56599642D01*
X28888273Y-56599642D01*
X28812083Y-56561547D01*
X28431130Y-56371071D02*
X28431130Y-56904404D01*
X28431130Y-56447261D02*
X28393035Y-56409166D01*
X28316845Y-56371071D01*
X28202559Y-56371071D01*
X28126369Y-56409166D01*
X28088273Y-56485357D01*
X28088273Y-56904404D01*
X27212083Y-56104404D02*
X26945416Y-56904404D01*
X26678750Y-56104404D01*
X26412083Y-56904404D02*
X26412083Y-56371071D01*
X26412083Y-56104404D02*
X26450178Y-56142500D01*
X26412083Y-56180595D01*
X26373988Y-56142500D01*
X26412083Y-56104404D01*
X26412083Y-56180595D01*
X25916845Y-56904404D02*
X25993035Y-56866309D01*
X26031130Y-56790119D01*
X26031130Y-56104404D01*
X25612083Y-56904404D02*
X25612083Y-56104404D01*
X25269226Y-56904404D02*
X25269226Y-56485357D01*
X25307321Y-56409166D01*
X25383511Y-56371071D01*
X25497797Y-56371071D01*
X25573988Y-56409166D01*
X25612083Y-56447261D01*
X24545416Y-56904404D02*
X24545416Y-56485357D01*
X24583511Y-56409166D01*
X24659702Y-56371071D01*
X24812083Y-56371071D01*
X24888273Y-56409166D01*
X24545416Y-56866309D02*
X24621607Y-56904404D01*
X24812083Y-56904404D01*
X24888273Y-56866309D01*
X24926369Y-56790119D01*
X24926369Y-56713928D01*
X24888273Y-56637738D01*
X24812083Y-56599642D01*
X24621607Y-56599642D01*
X24545416Y-56561547D01*
X23821607Y-56371071D02*
X23821607Y-56904404D01*
X24164464Y-56371071D02*
X24164464Y-56790119D01*
X24126369Y-56866309D01*
X24050178Y-56904404D01*
X23935892Y-56904404D01*
X23859702Y-56866309D01*
X23821607Y-56828214D01*
X23135892Y-56866309D02*
X23212083Y-56904404D01*
X23364464Y-56904404D01*
X23440654Y-56866309D01*
X23478750Y-56790119D01*
X23478750Y-56485357D01*
X23440654Y-56409166D01*
X23364464Y-56371071D01*
X23212083Y-56371071D01*
X23135892Y-56409166D01*
X23097797Y-56485357D01*
X23097797Y-56561547D01*
X23478750Y-56637738D01*
X22754940Y-56904404D02*
X22754940Y-56371071D01*
X22754940Y-56523452D02*
X22716845Y-56447261D01*
X22678750Y-56409166D01*
X22602559Y-56371071D01*
X22526369Y-56371071D01*
D10*
X61799428Y-55451428D02*
X61842285Y-55494285D01*
X61970857Y-55537142D01*
X62056571Y-55537142D01*
X62185142Y-55494285D01*
X62270857Y-55408571D01*
X62313714Y-55322857D01*
X62356571Y-55151428D01*
X62356571Y-55022857D01*
X62313714Y-54851428D01*
X62270857Y-54765714D01*
X62185142Y-54680000D01*
X62056571Y-54637142D01*
X61970857Y-54637142D01*
X61842285Y-54680000D01*
X61799428Y-54722857D01*
X61285142Y-55537142D02*
X61370857Y-55494285D01*
X61413714Y-55451428D01*
X61456571Y-55365714D01*
X61456571Y-55108571D01*
X61413714Y-55022857D01*
X61370857Y-54980000D01*
X61285142Y-54937142D01*
X61156571Y-54937142D01*
X61070857Y-54980000D01*
X61028000Y-55022857D01*
X60985142Y-55108571D01*
X60985142Y-55365714D01*
X61028000Y-55451428D01*
X61070857Y-55494285D01*
X61156571Y-55537142D01*
X61285142Y-55537142D01*
X60599428Y-54937142D02*
X60599428Y-55537142D01*
X60599428Y-55022857D02*
X60556571Y-54980000D01*
X60470857Y-54937142D01*
X60342285Y-54937142D01*
X60256571Y-54980000D01*
X60213714Y-55065714D01*
X60213714Y-55537142D01*
X59785142Y-54937142D02*
X59785142Y-55537142D01*
X59785142Y-55022857D02*
X59742285Y-54980000D01*
X59656571Y-54937142D01*
X59528000Y-54937142D01*
X59442285Y-54980000D01*
X59399428Y-55065714D01*
X59399428Y-55537142D01*
X58628000Y-55494285D02*
X58713714Y-55537142D01*
X58885142Y-55537142D01*
X58970857Y-55494285D01*
X59013714Y-55408571D01*
X59013714Y-55065714D01*
X58970857Y-54980000D01*
X58885142Y-54937142D01*
X58713714Y-54937142D01*
X58628000Y-54980000D01*
X58585142Y-55065714D01*
X58585142Y-55151428D01*
X59013714Y-55237142D01*
X57813714Y-55494285D02*
X57899428Y-55537142D01*
X58070857Y-55537142D01*
X58156571Y-55494285D01*
X58199428Y-55451428D01*
X58242285Y-55365714D01*
X58242285Y-55108571D01*
X58199428Y-55022857D01*
X58156571Y-54980000D01*
X58070857Y-54937142D01*
X57899428Y-54937142D01*
X57813714Y-54980000D01*
X57556571Y-54937142D02*
X57213714Y-54937142D01*
X57428000Y-54637142D02*
X57428000Y-55408571D01*
X57385142Y-55494285D01*
X57299428Y-55537142D01*
X57213714Y-55537142D01*
X56785142Y-55537142D02*
X56870857Y-55494285D01*
X56913714Y-55451428D01*
X56956571Y-55365714D01*
X56956571Y-55108571D01*
X56913714Y-55022857D01*
X56870857Y-54980000D01*
X56785142Y-54937142D01*
X56656571Y-54937142D01*
X56570857Y-54980000D01*
X56528000Y-55022857D01*
X56485142Y-55108571D01*
X56485142Y-55365714D01*
X56528000Y-55451428D01*
X56570857Y-55494285D01*
X56656571Y-55537142D01*
X56785142Y-55537142D01*
X56099428Y-55537142D02*
X56099428Y-54937142D01*
X56099428Y-55108571D02*
X56056571Y-55022857D01*
X56013714Y-54980000D01*
X55928000Y-54937142D01*
X55842285Y-54937142D01*
X55542285Y-55451428D02*
X55499428Y-55494285D01*
X55542285Y-55537142D01*
X55585142Y-55494285D01*
X55542285Y-55451428D01*
X55542285Y-55537142D01*
X55542285Y-54980000D02*
X55499428Y-55022857D01*
X55542285Y-55065714D01*
X55585142Y-55022857D01*
X55542285Y-54980000D01*
X55542285Y-55065714D01*
X79370857Y-57037142D02*
X79885142Y-57037142D01*
X79628000Y-57037142D02*
X79628000Y-56137142D01*
X79713714Y-56265714D01*
X79799428Y-56351428D01*
X79885142Y-56394285D01*
X78985142Y-56951428D02*
X78942285Y-56994285D01*
X78985142Y-57037142D01*
X79027999Y-56994285D01*
X78985142Y-56951428D01*
X78985142Y-57037142D01*
X78985142Y-56480000D02*
X78942285Y-56522857D01*
X78985142Y-56565714D01*
X79027999Y-56522857D01*
X78985142Y-56480000D01*
X78985142Y-56565714D01*
X77399428Y-57037142D02*
X77913714Y-57037142D01*
X77656571Y-57037142D02*
X77656571Y-56137142D01*
X77742285Y-56265714D01*
X77828000Y-56351428D01*
X77913714Y-56394285D01*
X77056571Y-56222857D02*
X77013714Y-56180000D01*
X76928000Y-56137142D01*
X76713714Y-56137142D01*
X76628000Y-56180000D01*
X76585142Y-56222857D01*
X76542285Y-56308571D01*
X76542285Y-56394285D01*
X76585142Y-56522857D01*
X77099428Y-57037142D01*
X76542285Y-57037142D01*
X76285142Y-56137142D02*
X75985142Y-57037142D01*
X75685142Y-56137142D01*
X74485142Y-57337142D02*
X74485142Y-56051428D01*
X73199428Y-56222857D02*
X73156571Y-56180000D01*
X73070857Y-56137142D01*
X72856571Y-56137142D01*
X72770857Y-56180000D01*
X72728000Y-56222857D01*
X72685142Y-56308571D01*
X72685142Y-56394285D01*
X72728000Y-56522857D01*
X73242285Y-57037142D01*
X72685142Y-57037142D01*
X72299428Y-56951428D02*
X72256571Y-56994285D01*
X72299428Y-57037142D01*
X72342285Y-56994285D01*
X72299428Y-56951428D01*
X72299428Y-57037142D01*
X72299428Y-56480000D02*
X72256571Y-56522857D01*
X72299428Y-56565714D01*
X72342285Y-56522857D01*
X72299428Y-56480000D01*
X72299428Y-56565714D01*
X70885142Y-56565714D02*
X71185142Y-56565714D01*
X71185142Y-57037142D02*
X71185142Y-56137142D01*
X70756571Y-56137142D01*
X70028000Y-57037142D02*
X70028000Y-56565714D01*
X70070857Y-56480000D01*
X70156571Y-56437142D01*
X70328000Y-56437142D01*
X70413714Y-56480000D01*
X70028000Y-56994285D02*
X70113714Y-57037142D01*
X70328000Y-57037142D01*
X70413714Y-56994285D01*
X70456571Y-56908571D01*
X70456571Y-56822857D01*
X70413714Y-56737142D01*
X70328000Y-56694285D01*
X70113714Y-56694285D01*
X70028000Y-56651428D01*
X69599428Y-56437142D02*
X69599428Y-57037142D01*
X69599428Y-56522857D02*
X69556571Y-56480000D01*
X69470857Y-56437142D01*
X69342285Y-56437142D01*
X69256571Y-56480000D01*
X69213714Y-56565714D01*
X69213714Y-57037142D01*
X68785142Y-56694285D02*
X68099428Y-56694285D01*
X68442285Y-57037142D02*
X68442285Y-56351428D01*
X66770857Y-57337142D02*
X66770857Y-56051428D01*
X65528000Y-56137142D02*
X64970857Y-56137142D01*
X65270857Y-56480000D01*
X65142285Y-56480000D01*
X65056571Y-56522857D01*
X65013714Y-56565714D01*
X64970857Y-56651428D01*
X64970857Y-56865714D01*
X65013714Y-56951428D01*
X65056571Y-56994285D01*
X65142285Y-57037142D01*
X65399428Y-57037142D01*
X65485142Y-56994285D01*
X65528000Y-56951428D01*
X64585142Y-56951428D02*
X64542285Y-56994285D01*
X64585142Y-57037142D01*
X64628000Y-56994285D01*
X64585142Y-56951428D01*
X64585142Y-57037142D01*
X64585142Y-56480000D02*
X64542285Y-56522857D01*
X64585142Y-56565714D01*
X64628000Y-56522857D01*
X64585142Y-56480000D01*
X64585142Y-56565714D01*
X63170857Y-56565714D02*
X63470857Y-56565714D01*
X63470857Y-57037142D02*
X63470857Y-56137142D01*
X63042285Y-56137142D01*
X62313714Y-57037142D02*
X62313714Y-56565714D01*
X62356571Y-56480000D01*
X62442285Y-56437142D01*
X62613714Y-56437142D01*
X62699428Y-56480000D01*
X62313714Y-56994285D02*
X62399428Y-57037142D01*
X62613714Y-57037142D01*
X62699428Y-56994285D01*
X62742285Y-56908571D01*
X62742285Y-56822857D01*
X62699428Y-56737142D01*
X62613714Y-56694285D01*
X62399428Y-56694285D01*
X62313714Y-56651428D01*
X61885142Y-56437142D02*
X61885142Y-57037142D01*
X61885142Y-56522857D02*
X61842285Y-56480000D01*
X61756571Y-56437142D01*
X61628000Y-56437142D01*
X61542285Y-56480000D01*
X61499428Y-56565714D01*
X61499428Y-57037142D01*
X61070857Y-56694285D02*
X60385142Y-56694285D01*
X59056571Y-57337142D02*
X59056571Y-56051428D01*
X57342285Y-56437142D02*
X57342285Y-57037142D01*
X57556571Y-56094285D02*
X57770857Y-56737142D01*
X57213714Y-56737142D01*
X56870857Y-56951428D02*
X56827999Y-56994285D01*
X56870857Y-57037142D01*
X56913714Y-56994285D01*
X56870857Y-56951428D01*
X56870857Y-57037142D01*
X56870857Y-56480000D02*
X56827999Y-56522857D01*
X56870857Y-56565714D01*
X56913714Y-56522857D01*
X56870857Y-56480000D01*
X56870857Y-56565714D01*
X55756571Y-57037142D02*
X55756571Y-56137142D01*
X55413714Y-56137142D01*
X55327999Y-56180000D01*
X55285142Y-56222857D01*
X55242285Y-56308571D01*
X55242285Y-56437142D01*
X55285142Y-56522857D01*
X55327999Y-56565714D01*
X55413714Y-56608571D01*
X55756571Y-56608571D01*
X54727999Y-57037142D02*
X54813714Y-56994285D01*
X54856571Y-56951428D01*
X54899428Y-56865714D01*
X54899428Y-56608571D01*
X54856571Y-56522857D01*
X54813714Y-56480000D01*
X54727999Y-56437142D01*
X54599428Y-56437142D01*
X54513714Y-56480000D01*
X54470857Y-56522857D01*
X54427999Y-56608571D01*
X54427999Y-56865714D01*
X54470857Y-56951428D01*
X54513714Y-56994285D01*
X54599428Y-57037142D01*
X54727999Y-57037142D01*
X54127999Y-56437142D02*
X53956571Y-57037142D01*
X53785142Y-56608571D01*
X53613714Y-57037142D01*
X53442285Y-56437142D01*
X52756571Y-56994285D02*
X52842285Y-57037142D01*
X53013714Y-57037142D01*
X53099428Y-56994285D01*
X53142285Y-56908571D01*
X53142285Y-56565714D01*
X53099428Y-56480000D01*
X53013714Y-56437142D01*
X52842285Y-56437142D01*
X52756571Y-56480000D01*
X52713714Y-56565714D01*
X52713714Y-56651428D01*
X53142285Y-56737142D01*
X52327999Y-57037142D02*
X52327999Y-56437142D01*
X52327999Y-56608571D02*
X52285142Y-56522857D01*
X52242285Y-56480000D01*
X52156571Y-56437142D01*
X52070857Y-56437142D01*
X50870857Y-57337142D02*
X50870857Y-56051428D01*
X49113714Y-56137142D02*
X49542285Y-56137142D01*
X49585142Y-56565714D01*
X49542285Y-56522857D01*
X49456571Y-56480000D01*
X49242285Y-56480000D01*
X49156571Y-56522857D01*
X49113714Y-56565714D01*
X49070857Y-56651428D01*
X49070857Y-56865714D01*
X49113714Y-56951428D01*
X49156571Y-56994285D01*
X49242285Y-57037142D01*
X49456571Y-57037142D01*
X49542285Y-56994285D01*
X49585142Y-56951428D01*
X48685142Y-56951428D02*
X48642285Y-56994285D01*
X48685142Y-57037142D01*
X48727999Y-56994285D01*
X48685142Y-56951428D01*
X48685142Y-57037142D01*
X48685142Y-56480000D02*
X48642285Y-56522857D01*
X48685142Y-56565714D01*
X48727999Y-56522857D01*
X48685142Y-56480000D01*
X48685142Y-56565714D01*
X47099428Y-56180000D02*
X47185142Y-56137142D01*
X47313714Y-56137142D01*
X47442285Y-56180000D01*
X47527999Y-56265714D01*
X47570857Y-56351428D01*
X47613714Y-56522857D01*
X47613714Y-56651428D01*
X47570857Y-56822857D01*
X47527999Y-56908571D01*
X47442285Y-56994285D01*
X47313714Y-57037142D01*
X47227999Y-57037142D01*
X47099428Y-56994285D01*
X47056571Y-56951428D01*
X47056571Y-56651428D01*
X47227999Y-56651428D01*
X46670857Y-57037142D02*
X46670857Y-56137142D01*
X46156571Y-57037142D01*
X46156571Y-56137142D01*
X45727999Y-57037142D02*
X45727999Y-56137142D01*
X45513714Y-56137142D01*
X45385142Y-56180000D01*
X45299428Y-56265714D01*
X45256571Y-56351428D01*
X45213714Y-56522857D01*
X45213714Y-56651428D01*
X45256571Y-56822857D01*
X45299428Y-56908571D01*
X45385142Y-56994285D01*
X45513714Y-57037142D01*
X45727999Y-57037142D01*
X43927999Y-57337142D02*
X43927999Y-56051428D01*
X42213714Y-56137142D02*
X42385142Y-56137142D01*
X42470857Y-56180000D01*
X42513714Y-56222857D01*
X42599428Y-56351428D01*
X42642285Y-56522857D01*
X42642285Y-56865714D01*
X42599428Y-56951428D01*
X42556571Y-56994285D01*
X42470857Y-57037142D01*
X42299428Y-57037142D01*
X42213714Y-56994285D01*
X42170857Y-56951428D01*
X42127999Y-56865714D01*
X42127999Y-56651428D01*
X42170857Y-56565714D01*
X42213714Y-56522857D01*
X42299428Y-56480000D01*
X42470857Y-56480000D01*
X42556571Y-56522857D01*
X42599428Y-56565714D01*
X42642285Y-56651428D01*
X41742285Y-56951428D02*
X41699428Y-56994285D01*
X41742285Y-57037142D01*
X41785142Y-56994285D01*
X41742285Y-56951428D01*
X41742285Y-57037142D01*
X41742285Y-56480000D02*
X41699428Y-56522857D01*
X41742285Y-56565714D01*
X41785142Y-56522857D01*
X41742285Y-56480000D01*
X41742285Y-56565714D01*
X40627999Y-57037142D02*
X40627999Y-56137142D01*
X40413714Y-56137142D01*
X40285142Y-56180000D01*
X40199428Y-56265714D01*
X40156571Y-56351428D01*
X40113714Y-56522857D01*
X40113714Y-56651428D01*
X40156571Y-56822857D01*
X40199428Y-56908571D01*
X40285142Y-56994285D01*
X40413714Y-57037142D01*
X40627999Y-57037142D01*
X39342285Y-57037142D02*
X39342285Y-56565714D01*
X39385142Y-56480000D01*
X39470857Y-56437142D01*
X39642285Y-56437142D01*
X39727999Y-56480000D01*
X39342285Y-56994285D02*
X39427999Y-57037142D01*
X39642285Y-57037142D01*
X39727999Y-56994285D01*
X39770857Y-56908571D01*
X39770857Y-56822857D01*
X39727999Y-56737142D01*
X39642285Y-56694285D01*
X39427999Y-56694285D01*
X39342285Y-56651428D01*
X39042285Y-56437142D02*
X38699428Y-56437142D01*
X38913714Y-56137142D02*
X38913714Y-56908571D01*
X38870857Y-56994285D01*
X38785142Y-57037142D01*
X38699428Y-57037142D01*
X38013714Y-57037142D02*
X38013714Y-56565714D01*
X38056571Y-56480000D01*
X38142285Y-56437142D01*
X38313714Y-56437142D01*
X38399428Y-56480000D01*
X38013714Y-56994285D02*
X38099428Y-57037142D01*
X38313714Y-57037142D01*
X38399428Y-56994285D01*
X38442285Y-56908571D01*
X38442285Y-56822857D01*
X38399428Y-56737142D01*
X38313714Y-56694285D01*
X38099428Y-56694285D01*
X38013714Y-56651428D01*
X21272523Y-53300380D02*
X21463000Y-53300380D01*
X21558238Y-53348000D01*
X21605857Y-53395619D01*
X21701095Y-53538476D01*
X21748714Y-53728952D01*
X21748714Y-54109904D01*
X21701095Y-54205142D01*
X21653476Y-54252761D01*
X21558238Y-54300380D01*
X21367761Y-54300380D01*
X21272523Y-54252761D01*
X21224904Y-54205142D01*
X21177285Y-54109904D01*
X21177285Y-53871809D01*
X21224904Y-53776571D01*
X21272523Y-53728952D01*
X21367761Y-53681333D01*
X21558238Y-53681333D01*
X21653476Y-53728952D01*
X21701095Y-53776571D01*
X21748714Y-53871809D01*
X21050285Y-25344380D02*
X21621714Y-25344380D01*
X21336000Y-25344380D02*
X21336000Y-24344380D01*
X21431238Y-24487238D01*
X21526476Y-24582476D01*
X21621714Y-24630095D01*
D12*
%TO.C,R7*%
X35993000Y-21588252D02*
X35993000Y-21065748D01*
X37413000Y-21588252D02*
X37413000Y-21065748D01*
%TO.C,D3*%
X35250000Y-19485000D02*
X35250000Y-22345000D01*
X33330000Y-19485000D02*
X35250000Y-19485000D01*
X33330000Y-22345000D02*
X33330000Y-19485000D01*
%TO.C,J1*%
X32840000Y-24030000D02*
X32840000Y-24530000D01*
X32100000Y-24030000D02*
X32840000Y-24030000D01*
X28963000Y-50603000D02*
X29009000Y-50556000D01*
X26665000Y-52900000D02*
X26701000Y-52865000D01*
X29179000Y-50796000D02*
X29214000Y-50761000D01*
X26871000Y-53105000D02*
X26917000Y-53058000D01*
X28963000Y-45603000D02*
X29009000Y-45556000D01*
X26665000Y-47900000D02*
X26701000Y-47865000D01*
X29179000Y-45796000D02*
X29214000Y-45761000D01*
X26871000Y-48105000D02*
X26917000Y-48058000D01*
X28963000Y-40603000D02*
X29009000Y-40556000D01*
X26665000Y-42900000D02*
X26701000Y-42865000D01*
X29179000Y-40796000D02*
X29214000Y-40761000D01*
X26871000Y-43105000D02*
X26917000Y-43058000D01*
X28963000Y-35603000D02*
X29009000Y-35556000D01*
X26665000Y-37900000D02*
X26701000Y-37865000D01*
X29179000Y-35796000D02*
X29214000Y-35761000D01*
X26871000Y-38105000D02*
X26917000Y-38058000D01*
X28963000Y-30603000D02*
X29009000Y-30556000D01*
X26665000Y-32900000D02*
X26701000Y-32865000D01*
X29179000Y-30796000D02*
X29214000Y-30761000D01*
X26871000Y-33105000D02*
X26917000Y-33058000D01*
X22679000Y-54390000D02*
X32600000Y-54390000D01*
X22679000Y-24270000D02*
X32600000Y-24270000D01*
X32600000Y-24270000D02*
X32600000Y-54390000D01*
X22679000Y-24270000D02*
X22679000Y-54390000D01*
X25639000Y-24270000D02*
X25639000Y-54390000D01*
X30540000Y-24270000D02*
X30540000Y-54390000D01*
X32040000Y-24270000D02*
X32040000Y-54390000D01*
X29620000Y-51830000D02*
G75*
G03*
X29620000Y-51830000I-1680000J0D01*
G01*
X29620000Y-46830000D02*
G75*
G03*
X29620000Y-46830000I-1680000J0D01*
G01*
X29620000Y-41830000D02*
G75*
G03*
X29620000Y-41830000I-1680000J0D01*
G01*
X29620000Y-36830000D02*
G75*
G03*
X29620000Y-36830000I-1680000J0D01*
G01*
X29620000Y-31830000D02*
G75*
G03*
X29620000Y-31830000I-1680000J0D01*
G01*
X29620253Y-26858805D02*
G75*
G03*
X29475000Y-26146000I-1680253J28805D01*
G01*
X28623042Y-25294574D02*
G75*
G03*
X27256000Y-25295000I-683042J-1535426D01*
G01*
X26404574Y-26146958D02*
G75*
G03*
X26405000Y-27514000I1535426J-683042D01*
G01*
X27256958Y-28365426D02*
G75*
G03*
X28624000Y-28365000I683042J1535426D01*
G01*
X29474756Y-27513318D02*
G75*
G03*
X29620000Y-26830000I-1534756J683318D01*
G01*
%TO.C,R6*%
X24078000Y-21733252D02*
X24078000Y-21210748D01*
X22658000Y-21733252D02*
X22658000Y-21210748D01*
%TO.C,R5*%
X28119000Y-21210748D02*
X28119000Y-21733252D01*
X29539000Y-21210748D02*
X29539000Y-21733252D01*
%TO.C,D2*%
X26868000Y-20472000D02*
X26868000Y-23332000D01*
X26868000Y-23332000D02*
X24948000Y-23332000D01*
X24948000Y-23332000D02*
X24948000Y-20472000D01*
%TO.C,D1*%
X30536000Y-22454000D02*
X30536000Y-19594000D01*
X30536000Y-19594000D02*
X32456000Y-19594000D01*
X32456000Y-19594000D02*
X32456000Y-22454000D01*
%TO.C,R7*%
D10*
X36869666Y-19502380D02*
X37203000Y-19026190D01*
X37441095Y-19502380D02*
X37441095Y-18502380D01*
X37060142Y-18502380D01*
X36964904Y-18550000D01*
X36917285Y-18597619D01*
X36869666Y-18692857D01*
X36869666Y-18835714D01*
X36917285Y-18930952D01*
X36964904Y-18978571D01*
X37060142Y-19026190D01*
X37441095Y-19026190D01*
X36536333Y-18502380D02*
X35869666Y-18502380D01*
X36298238Y-19502380D01*
%TO.C,D3*%
X35028095Y-19375380D02*
X35028095Y-18375380D01*
X34790000Y-18375380D01*
X34647142Y-18423000D01*
X34551904Y-18518238D01*
X34504285Y-18613476D01*
X34456666Y-18803952D01*
X34456666Y-18946809D01*
X34504285Y-19137285D01*
X34551904Y-19232523D01*
X34647142Y-19327761D01*
X34790000Y-19375380D01*
X35028095Y-19375380D01*
X34123333Y-18375380D02*
X33504285Y-18375380D01*
X33837619Y-18756333D01*
X33694761Y-18756333D01*
X33599523Y-18803952D01*
X33551904Y-18851571D01*
X33504285Y-18946809D01*
X33504285Y-19184904D01*
X33551904Y-19280142D01*
X33599523Y-19327761D01*
X33694761Y-19375380D01*
X33980476Y-19375380D01*
X34075714Y-19327761D01*
X34123333Y-19280142D01*
%TO.C,J1*%
X21132380Y-38996666D02*
X21846666Y-38996666D01*
X21989523Y-38949047D01*
X22084761Y-38853809D01*
X22132380Y-38710952D01*
X22132380Y-38615714D01*
X22132380Y-39996666D02*
X22132380Y-39425238D01*
X22132380Y-39710952D02*
X21132380Y-39710952D01*
X21275238Y-39615714D01*
X21370476Y-39520476D01*
X21418095Y-39425238D01*
%TO.C,R6*%
X23534666Y-19502380D02*
X23868000Y-19026190D01*
X24106095Y-19502380D02*
X24106095Y-18502380D01*
X23725142Y-18502380D01*
X23629904Y-18550000D01*
X23582285Y-18597619D01*
X23534666Y-18692857D01*
X23534666Y-18835714D01*
X23582285Y-18930952D01*
X23629904Y-18978571D01*
X23725142Y-19026190D01*
X24106095Y-19026190D01*
X22677523Y-18502380D02*
X22868000Y-18502380D01*
X22963238Y-18550000D01*
X23010857Y-18597619D01*
X23106095Y-18740476D01*
X23153714Y-18930952D01*
X23153714Y-19311904D01*
X23106095Y-19407142D01*
X23058476Y-19454761D01*
X22963238Y-19502380D01*
X22772761Y-19502380D01*
X22677523Y-19454761D01*
X22629904Y-19407142D01*
X22582285Y-19311904D01*
X22582285Y-19073809D01*
X22629904Y-18978571D01*
X22677523Y-18930952D01*
X22772761Y-18883333D01*
X22963238Y-18883333D01*
X23058476Y-18930952D01*
X23106095Y-18978571D01*
X23153714Y-19073809D01*
%TO.C,R5*%
X28995666Y-19502380D02*
X29329000Y-19026190D01*
X29567095Y-19502380D02*
X29567095Y-18502380D01*
X29186142Y-18502380D01*
X29090904Y-18550000D01*
X29043285Y-18597619D01*
X28995666Y-18692857D01*
X28995666Y-18835714D01*
X29043285Y-18930952D01*
X29090904Y-18978571D01*
X29186142Y-19026190D01*
X29567095Y-19026190D01*
X28090904Y-18502380D02*
X28567095Y-18502380D01*
X28614714Y-18978571D01*
X28567095Y-18930952D01*
X28471857Y-18883333D01*
X28233761Y-18883333D01*
X28138523Y-18930952D01*
X28090904Y-18978571D01*
X28043285Y-19073809D01*
X28043285Y-19311904D01*
X28090904Y-19407142D01*
X28138523Y-19454761D01*
X28233761Y-19502380D01*
X28471857Y-19502380D01*
X28567095Y-19454761D01*
X28614714Y-19407142D01*
%TO.C,D2*%
X26646095Y-19502380D02*
X26646095Y-18502380D01*
X26408000Y-18502380D01*
X26265142Y-18550000D01*
X26169904Y-18645238D01*
X26122285Y-18740476D01*
X26074666Y-18930952D01*
X26074666Y-19073809D01*
X26122285Y-19264285D01*
X26169904Y-19359523D01*
X26265142Y-19454761D01*
X26408000Y-19502380D01*
X26646095Y-19502380D01*
X25693714Y-18597619D02*
X25646095Y-18550000D01*
X25550857Y-18502380D01*
X25312761Y-18502380D01*
X25217523Y-18550000D01*
X25169904Y-18597619D01*
X25122285Y-18692857D01*
X25122285Y-18788095D01*
X25169904Y-18930952D01*
X25741333Y-19502380D01*
X25122285Y-19502380D01*
%TO.C,D1*%
X32234095Y-19375380D02*
X32234095Y-18375380D01*
X31996000Y-18375380D01*
X31853142Y-18423000D01*
X31757904Y-18518238D01*
X31710285Y-18613476D01*
X31662666Y-18803952D01*
X31662666Y-18946809D01*
X31710285Y-19137285D01*
X31757904Y-19232523D01*
X31853142Y-19327761D01*
X31996000Y-19375380D01*
X32234095Y-19375380D01*
X30710285Y-19375380D02*
X31281714Y-19375380D01*
X30996000Y-19375380D02*
X30996000Y-18375380D01*
X31091238Y-18518238D01*
X31186476Y-18613476D01*
X31281714Y-18661095D01*
%TD*%
M02*
