%TF.GenerationSoftware,KiCad,Pcbnew,(5.1.6)-1*%
%TF.CreationDate,2020-10-16T10:26:54-04:00*%
%TF.ProjectId,heater,68656174-6572-42e6-9b69-6361645f7063,rev?*%
%TF.SameCoordinates,Original*%
%TF.FileFunction,Paste,Top*%
%TF.FilePolarity,Positive*%
%FSLAX46Y46*%
G04 Gerber Fmt 4.6, Leading zero omitted, Abs format (unit mm)*
G04 Created by KiCad (PCBNEW (5.1.6)-1) date 2020-10-16 10:26:54*
%MOMM*%
%LPD*%
G01*
G04 APERTURE LIST*
G04 APERTURE END LIST*
%TO.C,Q2*%
G36*
G01*
X30503000Y-39448000D02*
X30203000Y-39448000D01*
G75*
G02*
X30053000Y-39298000I0J150000D01*
G01*
X30053000Y-37848000D01*
G75*
G02*
X30203000Y-37698000I150000J0D01*
G01*
X30503000Y-37698000D01*
G75*
G02*
X30653000Y-37848000I0J-150000D01*
G01*
X30653000Y-39298000D01*
G75*
G02*
X30503000Y-39448000I-150000J0D01*
G01*
G37*
G36*
G01*
X31773000Y-39448000D02*
X31473000Y-39448000D01*
G75*
G02*
X31323000Y-39298000I0J150000D01*
G01*
X31323000Y-37848000D01*
G75*
G02*
X31473000Y-37698000I150000J0D01*
G01*
X31773000Y-37698000D01*
G75*
G02*
X31923000Y-37848000I0J-150000D01*
G01*
X31923000Y-39298000D01*
G75*
G02*
X31773000Y-39448000I-150000J0D01*
G01*
G37*
G36*
G01*
X33043000Y-39448000D02*
X32743000Y-39448000D01*
G75*
G02*
X32593000Y-39298000I0J150000D01*
G01*
X32593000Y-37848000D01*
G75*
G02*
X32743000Y-37698000I150000J0D01*
G01*
X33043000Y-37698000D01*
G75*
G02*
X33193000Y-37848000I0J-150000D01*
G01*
X33193000Y-39298000D01*
G75*
G02*
X33043000Y-39448000I-150000J0D01*
G01*
G37*
G36*
G01*
X34313000Y-39448000D02*
X34013000Y-39448000D01*
G75*
G02*
X33863000Y-39298000I0J150000D01*
G01*
X33863000Y-37848000D01*
G75*
G02*
X34013000Y-37698000I150000J0D01*
G01*
X34313000Y-37698000D01*
G75*
G02*
X34463000Y-37848000I0J-150000D01*
G01*
X34463000Y-39298000D01*
G75*
G02*
X34313000Y-39448000I-150000J0D01*
G01*
G37*
G36*
G01*
X34313000Y-44598000D02*
X34013000Y-44598000D01*
G75*
G02*
X33863000Y-44448000I0J150000D01*
G01*
X33863000Y-42998000D01*
G75*
G02*
X34013000Y-42848000I150000J0D01*
G01*
X34313000Y-42848000D01*
G75*
G02*
X34463000Y-42998000I0J-150000D01*
G01*
X34463000Y-44448000D01*
G75*
G02*
X34313000Y-44598000I-150000J0D01*
G01*
G37*
G36*
G01*
X33043000Y-44598000D02*
X32743000Y-44598000D01*
G75*
G02*
X32593000Y-44448000I0J150000D01*
G01*
X32593000Y-42998000D01*
G75*
G02*
X32743000Y-42848000I150000J0D01*
G01*
X33043000Y-42848000D01*
G75*
G02*
X33193000Y-42998000I0J-150000D01*
G01*
X33193000Y-44448000D01*
G75*
G02*
X33043000Y-44598000I-150000J0D01*
G01*
G37*
G36*
G01*
X31773000Y-44598000D02*
X31473000Y-44598000D01*
G75*
G02*
X31323000Y-44448000I0J150000D01*
G01*
X31323000Y-42998000D01*
G75*
G02*
X31473000Y-42848000I150000J0D01*
G01*
X31773000Y-42848000D01*
G75*
G02*
X31923000Y-42998000I0J-150000D01*
G01*
X31923000Y-44448000D01*
G75*
G02*
X31773000Y-44598000I-150000J0D01*
G01*
G37*
G36*
G01*
X30503000Y-44598000D02*
X30203000Y-44598000D01*
G75*
G02*
X30053000Y-44448000I0J150000D01*
G01*
X30053000Y-42998000D01*
G75*
G02*
X30203000Y-42848000I150000J0D01*
G01*
X30503000Y-42848000D01*
G75*
G02*
X30653000Y-42998000I0J-150000D01*
G01*
X30653000Y-44448000D01*
G75*
G02*
X30503000Y-44598000I-150000J0D01*
G01*
G37*
%TD*%
%TO.C,Q1*%
G36*
G01*
X34013000Y-54024000D02*
X34313000Y-54024000D01*
G75*
G02*
X34463000Y-54174000I0J-150000D01*
G01*
X34463000Y-55624000D01*
G75*
G02*
X34313000Y-55774000I-150000J0D01*
G01*
X34013000Y-55774000D01*
G75*
G02*
X33863000Y-55624000I0J150000D01*
G01*
X33863000Y-54174000D01*
G75*
G02*
X34013000Y-54024000I150000J0D01*
G01*
G37*
G36*
G01*
X32743000Y-54024000D02*
X33043000Y-54024000D01*
G75*
G02*
X33193000Y-54174000I0J-150000D01*
G01*
X33193000Y-55624000D01*
G75*
G02*
X33043000Y-55774000I-150000J0D01*
G01*
X32743000Y-55774000D01*
G75*
G02*
X32593000Y-55624000I0J150000D01*
G01*
X32593000Y-54174000D01*
G75*
G02*
X32743000Y-54024000I150000J0D01*
G01*
G37*
G36*
G01*
X31473000Y-54024000D02*
X31773000Y-54024000D01*
G75*
G02*
X31923000Y-54174000I0J-150000D01*
G01*
X31923000Y-55624000D01*
G75*
G02*
X31773000Y-55774000I-150000J0D01*
G01*
X31473000Y-55774000D01*
G75*
G02*
X31323000Y-55624000I0J150000D01*
G01*
X31323000Y-54174000D01*
G75*
G02*
X31473000Y-54024000I150000J0D01*
G01*
G37*
G36*
G01*
X30203000Y-54024000D02*
X30503000Y-54024000D01*
G75*
G02*
X30653000Y-54174000I0J-150000D01*
G01*
X30653000Y-55624000D01*
G75*
G02*
X30503000Y-55774000I-150000J0D01*
G01*
X30203000Y-55774000D01*
G75*
G02*
X30053000Y-55624000I0J150000D01*
G01*
X30053000Y-54174000D01*
G75*
G02*
X30203000Y-54024000I150000J0D01*
G01*
G37*
G36*
G01*
X30203000Y-48874000D02*
X30503000Y-48874000D01*
G75*
G02*
X30653000Y-49024000I0J-150000D01*
G01*
X30653000Y-50474000D01*
G75*
G02*
X30503000Y-50624000I-150000J0D01*
G01*
X30203000Y-50624000D01*
G75*
G02*
X30053000Y-50474000I0J150000D01*
G01*
X30053000Y-49024000D01*
G75*
G02*
X30203000Y-48874000I150000J0D01*
G01*
G37*
G36*
G01*
X31473000Y-48874000D02*
X31773000Y-48874000D01*
G75*
G02*
X31923000Y-49024000I0J-150000D01*
G01*
X31923000Y-50474000D01*
G75*
G02*
X31773000Y-50624000I-150000J0D01*
G01*
X31473000Y-50624000D01*
G75*
G02*
X31323000Y-50474000I0J150000D01*
G01*
X31323000Y-49024000D01*
G75*
G02*
X31473000Y-48874000I150000J0D01*
G01*
G37*
G36*
G01*
X32743000Y-48874000D02*
X33043000Y-48874000D01*
G75*
G02*
X33193000Y-49024000I0J-150000D01*
G01*
X33193000Y-50474000D01*
G75*
G02*
X33043000Y-50624000I-150000J0D01*
G01*
X32743000Y-50624000D01*
G75*
G02*
X32593000Y-50474000I0J150000D01*
G01*
X32593000Y-49024000D01*
G75*
G02*
X32743000Y-48874000I150000J0D01*
G01*
G37*
G36*
G01*
X34013000Y-48874000D02*
X34313000Y-48874000D01*
G75*
G02*
X34463000Y-49024000I0J-150000D01*
G01*
X34463000Y-50474000D01*
G75*
G02*
X34313000Y-50624000I-150000J0D01*
G01*
X34013000Y-50624000D01*
G75*
G02*
X33863000Y-50474000I0J150000D01*
G01*
X33863000Y-49024000D01*
G75*
G02*
X34013000Y-48874000I150000J0D01*
G01*
G37*
%TD*%
M02*
