%TF.GenerationSoftware,KiCad,Pcbnew,(5.1.6)-1*%
%TF.CreationDate,2020-10-16T10:26:54-04:00*%
%TF.ProjectId,heater,68656174-6572-42e6-9b69-6361645f7063,rev?*%
%TF.SameCoordinates,Original*%
%TF.FileFunction,Other,User*%
%FSLAX46Y46*%
G04 Gerber Fmt 4.6, Leading zero omitted, Abs format (unit mm)*
G04 Created by KiCad (PCBNEW (5.1.6)-1) date 2020-10-16 10:26:54*
%MOMM*%
%LPD*%
G01*
G04 APERTURE LIST*
%ADD10C,0.050000*%
G04 APERTURE END LIST*
D10*
%TO.C,Q2*%
X29558000Y-37448000D02*
X29558000Y-44848000D01*
X34958000Y-37448000D02*
X29558000Y-37448000D01*
X34958000Y-44848000D02*
X34958000Y-37448000D01*
X29558000Y-44848000D02*
X34958000Y-44848000D01*
%TO.C,Q1*%
X34958000Y-56024000D02*
X34958000Y-48624000D01*
X29558000Y-56024000D02*
X34958000Y-56024000D01*
X29558000Y-48624000D02*
X29558000Y-56024000D01*
X34958000Y-48624000D02*
X29558000Y-48624000D01*
%TO.C,R3*%
X56820000Y-53530000D02*
X56820000Y-20140000D01*
X47320000Y-53530000D02*
X56820000Y-53530000D01*
X47320000Y-20140000D02*
X47320000Y-53530000D01*
X56820000Y-20140000D02*
X47320000Y-20140000D01*
%TO.C,R2*%
X60020000Y-20130000D02*
X60020000Y-53520000D01*
X69520000Y-20130000D02*
X60020000Y-20130000D01*
X69520000Y-53520000D02*
X69520000Y-20130000D01*
X60020000Y-53520000D02*
X69520000Y-53520000D01*
%TO.C,R1*%
X72720000Y-20130000D02*
X72720000Y-53520000D01*
X82220000Y-20130000D02*
X72720000Y-20130000D01*
X82220000Y-53520000D02*
X82220000Y-20130000D01*
X72720000Y-53520000D02*
X82220000Y-53520000D01*
%TO.C,R4*%
X44755000Y-20140000D02*
X35255000Y-20140000D01*
X35255000Y-20140000D02*
X35255000Y-53530000D01*
X35255000Y-53530000D02*
X44755000Y-53530000D01*
X44755000Y-53530000D02*
X44755000Y-20140000D01*
%TD*%
M02*
