%TF.GenerationSoftware,KiCad,Pcbnew,(5.1.6)-1*%
%TF.CreationDate,2020-10-09T13:05:12-04:00*%
%TF.ProjectId,heater,68656174-6572-42e6-9b69-6361645f7063,rev?*%
%TF.SameCoordinates,Original*%
%TF.FileFunction,Copper,L1,Top*%
%TF.FilePolarity,Positive*%
%FSLAX46Y46*%
G04 Gerber Fmt 4.6, Leading zero omitted, Abs format (unit mm)*
G04 Created by KiCad (PCBNEW (5.1.6)-1) date 2020-10-09 13:05:12*
%MOMM*%
%LPD*%
G01*
G04 APERTURE LIST*
%TA.AperFunction,ComponentPad*%
%ADD10O,2.400000X2.400000*%
%TD*%
%TA.AperFunction,ComponentPad*%
%ADD11C,2.400000*%
%TD*%
%TA.AperFunction,ComponentPad*%
%ADD12C,2.600000*%
%TD*%
%TA.AperFunction,ComponentPad*%
%ADD13R,2.600000X2.600000*%
%TD*%
%TA.AperFunction,ViaPad*%
%ADD14C,0.800000*%
%TD*%
%TA.AperFunction,Conductor*%
%ADD15C,3.000000*%
%TD*%
%TA.AperFunction,Conductor*%
%ADD16C,0.500000*%
%TD*%
%TA.AperFunction,Conductor*%
%ADD17C,0.254000*%
%TD*%
G04 APERTURE END LIST*
%TO.P,Q1,3*%
%TO.N,Net-(D1-Pad1)*%
%TA.AperFunction,SMDPad,CuDef*%
G36*
G01*
X34013000Y-39038000D02*
X34313000Y-39038000D01*
G75*
G02*
X34463000Y-39188000I0J-150000D01*
G01*
X34463000Y-40638000D01*
G75*
G02*
X34313000Y-40788000I-150000J0D01*
G01*
X34013000Y-40788000D01*
G75*
G02*
X33863000Y-40638000I0J150000D01*
G01*
X33863000Y-39188000D01*
G75*
G02*
X34013000Y-39038000I150000J0D01*
G01*
G37*
%TD.AperFunction*%
%TA.AperFunction,SMDPad,CuDef*%
G36*
G01*
X32743000Y-39038000D02*
X33043000Y-39038000D01*
G75*
G02*
X33193000Y-39188000I0J-150000D01*
G01*
X33193000Y-40638000D01*
G75*
G02*
X33043000Y-40788000I-150000J0D01*
G01*
X32743000Y-40788000D01*
G75*
G02*
X32593000Y-40638000I0J150000D01*
G01*
X32593000Y-39188000D01*
G75*
G02*
X32743000Y-39038000I150000J0D01*
G01*
G37*
%TD.AperFunction*%
%TA.AperFunction,SMDPad,CuDef*%
G36*
G01*
X31473000Y-39038000D02*
X31773000Y-39038000D01*
G75*
G02*
X31923000Y-39188000I0J-150000D01*
G01*
X31923000Y-40638000D01*
G75*
G02*
X31773000Y-40788000I-150000J0D01*
G01*
X31473000Y-40788000D01*
G75*
G02*
X31323000Y-40638000I0J150000D01*
G01*
X31323000Y-39188000D01*
G75*
G02*
X31473000Y-39038000I150000J0D01*
G01*
G37*
%TD.AperFunction*%
%TA.AperFunction,SMDPad,CuDef*%
G36*
G01*
X30203000Y-39038000D02*
X30503000Y-39038000D01*
G75*
G02*
X30653000Y-39188000I0J-150000D01*
G01*
X30653000Y-40638000D01*
G75*
G02*
X30503000Y-40788000I-150000J0D01*
G01*
X30203000Y-40788000D01*
G75*
G02*
X30053000Y-40638000I0J150000D01*
G01*
X30053000Y-39188000D01*
G75*
G02*
X30203000Y-39038000I150000J0D01*
G01*
G37*
%TD.AperFunction*%
%TO.P,Q1,1*%
%TO.N,/Heat_Control*%
%TA.AperFunction,SMDPad,CuDef*%
G36*
G01*
X30203000Y-33888000D02*
X30503000Y-33888000D01*
G75*
G02*
X30653000Y-34038000I0J-150000D01*
G01*
X30653000Y-35488000D01*
G75*
G02*
X30503000Y-35638000I-150000J0D01*
G01*
X30203000Y-35638000D01*
G75*
G02*
X30053000Y-35488000I0J150000D01*
G01*
X30053000Y-34038000D01*
G75*
G02*
X30203000Y-33888000I150000J0D01*
G01*
G37*
%TD.AperFunction*%
%TO.P,Q1,2*%
%TO.N,GND*%
%TA.AperFunction,SMDPad,CuDef*%
G36*
G01*
X31473000Y-33888000D02*
X31773000Y-33888000D01*
G75*
G02*
X31923000Y-34038000I0J-150000D01*
G01*
X31923000Y-35488000D01*
G75*
G02*
X31773000Y-35638000I-150000J0D01*
G01*
X31473000Y-35638000D01*
G75*
G02*
X31323000Y-35488000I0J150000D01*
G01*
X31323000Y-34038000D01*
G75*
G02*
X31473000Y-33888000I150000J0D01*
G01*
G37*
%TD.AperFunction*%
%TA.AperFunction,SMDPad,CuDef*%
G36*
G01*
X32743000Y-33888000D02*
X33043000Y-33888000D01*
G75*
G02*
X33193000Y-34038000I0J-150000D01*
G01*
X33193000Y-35488000D01*
G75*
G02*
X33043000Y-35638000I-150000J0D01*
G01*
X32743000Y-35638000D01*
G75*
G02*
X32593000Y-35488000I0J150000D01*
G01*
X32593000Y-34038000D01*
G75*
G02*
X32743000Y-33888000I150000J0D01*
G01*
G37*
%TD.AperFunction*%
%TA.AperFunction,SMDPad,CuDef*%
G36*
G01*
X34013000Y-33888000D02*
X34313000Y-33888000D01*
G75*
G02*
X34463000Y-34038000I0J-150000D01*
G01*
X34463000Y-35488000D01*
G75*
G02*
X34313000Y-35638000I-150000J0D01*
G01*
X34013000Y-35638000D01*
G75*
G02*
X33863000Y-35488000I0J150000D01*
G01*
X33863000Y-34038000D01*
G75*
G02*
X34013000Y-33888000I150000J0D01*
G01*
G37*
%TD.AperFunction*%
%TD*%
D10*
%TO.P,R3,2*%
%TO.N,Net-(D1-Pad1)*%
X52070000Y-52070000D03*
D11*
%TO.P,R3,1*%
%TO.N,Net-(R1-Pad2)*%
X52070000Y-21590000D03*
%TD*%
D10*
%TO.P,R2,2*%
%TO.N,Net-(R1-Pad2)*%
X64770000Y-21590000D03*
D11*
%TO.P,R2,1*%
%TO.N,VCC*%
X64770000Y-52070000D03*
%TD*%
D10*
%TO.P,R1,2*%
%TO.N,Net-(R1-Pad2)*%
X77470000Y-21590000D03*
D11*
%TO.P,R1,1*%
%TO.N,VCC*%
X77470000Y-52070000D03*
%TD*%
D10*
%TO.P,R4,2*%
%TO.N,Net-(D1-Pad1)*%
X40005000Y-52070000D03*
D11*
%TO.P,R4,1*%
%TO.N,Net-(R1-Pad2)*%
X40005000Y-21590000D03*
%TD*%
D12*
%TO.P,J1,5*%
%TO.N,/Heat_Control*%
X27940000Y-46830000D03*
%TO.P,J1,4*%
%TO.N,GND*%
X27940000Y-41830000D03*
%TO.P,J1,3*%
%TO.N,VCC*%
X27940000Y-36830000D03*
%TO.P,J1,2*%
%TO.N,GND*%
X27940000Y-31830000D03*
D13*
%TO.P,J1,1*%
%TO.N,VCC*%
X27940000Y-26830000D03*
%TD*%
D14*
%TO.N,GND*%
X31750000Y-27940000D03*
%TO.N,/Heat_Control*%
X30353000Y-36957000D03*
%TD*%
D15*
%TO.N,GND*%
X26590000Y-31830000D02*
X27940000Y-31830000D01*
X24130000Y-34290000D02*
X26590000Y-31830000D01*
X24130000Y-40640000D02*
X24130000Y-34290000D01*
X27940000Y-41830000D02*
X25320000Y-41830000D01*
X25320000Y-41830000D02*
X24130000Y-40640000D01*
D16*
%TO.N,/Heat_Control*%
X30353000Y-36957000D02*
X30353000Y-34763000D01*
D15*
%TO.N,VCC*%
X64770000Y-52070000D02*
X77470000Y-52070000D01*
%TO.N,Net-(R1-Pad2)*%
X52070000Y-21590000D02*
X64770000Y-21590000D01*
X64770000Y-21590000D02*
X77470000Y-21590000D01*
X52070000Y-21590000D02*
X40005000Y-21590000D01*
%TO.N,Net-(D1-Pad1)*%
X52070000Y-52070000D02*
X40005000Y-52070000D01*
%TD*%
D17*
%TO.N,GND*%
G36*
X34494001Y-35814000D02*
G01*
X31238000Y-35814000D01*
X31238000Y-35766783D01*
X31275929Y-35641745D01*
X31291072Y-35488000D01*
X31291072Y-34038000D01*
X31275929Y-33884255D01*
X31231084Y-33736418D01*
X31158258Y-33600171D01*
X31115000Y-33547461D01*
X31115000Y-33528000D01*
X31112560Y-33503224D01*
X31105333Y-33479399D01*
X31093597Y-33457443D01*
X31077803Y-33438197D01*
X31058557Y-33422403D01*
X31036601Y-33410667D01*
X31012776Y-33403440D01*
X30988000Y-33401000D01*
X30963076Y-33401000D01*
X30940829Y-33382742D01*
X30804582Y-33309916D01*
X30656745Y-33265071D01*
X30503000Y-33249928D01*
X30203000Y-33249928D01*
X30049255Y-33265071D01*
X29901418Y-33309916D01*
X29765171Y-33382742D01*
X29742924Y-33401000D01*
X26035000Y-33401000D01*
X26035000Y-30226000D01*
X34494001Y-30226000D01*
X34494001Y-35814000D01*
G37*
X34494001Y-35814000D02*
X31238000Y-35814000D01*
X31238000Y-35766783D01*
X31275929Y-35641745D01*
X31291072Y-35488000D01*
X31291072Y-34038000D01*
X31275929Y-33884255D01*
X31231084Y-33736418D01*
X31158258Y-33600171D01*
X31115000Y-33547461D01*
X31115000Y-33528000D01*
X31112560Y-33503224D01*
X31105333Y-33479399D01*
X31093597Y-33457443D01*
X31077803Y-33438197D01*
X31058557Y-33422403D01*
X31036601Y-33410667D01*
X31012776Y-33403440D01*
X30988000Y-33401000D01*
X30963076Y-33401000D01*
X30940829Y-33382742D01*
X30804582Y-33309916D01*
X30656745Y-33265071D01*
X30503000Y-33249928D01*
X30203000Y-33249928D01*
X30049255Y-33265071D01*
X29901418Y-33309916D01*
X29765171Y-33382742D01*
X29742924Y-33401000D01*
X26035000Y-33401000D01*
X26035000Y-30226000D01*
X34494001Y-30226000D01*
X34494001Y-35814000D01*
%TO.N,Net-(D1-Pad1)*%
G36*
X34494000Y-49750353D02*
G01*
X34490686Y-49784000D01*
X34503912Y-49918283D01*
X34543081Y-50047406D01*
X34544000Y-50049125D01*
X34544000Y-50546000D01*
X34546440Y-50570776D01*
X34553667Y-50594601D01*
X34565403Y-50616557D01*
X34581197Y-50635803D01*
X34600443Y-50651597D01*
X34622399Y-50663333D01*
X34646224Y-50670560D01*
X34671000Y-50673000D01*
X40894000Y-50673000D01*
X40894000Y-53467000D01*
X29972000Y-53467000D01*
X29972000Y-42486240D01*
X30044108Y-42248533D01*
X30085330Y-41830000D01*
X30044108Y-41411467D01*
X29972000Y-41173760D01*
X29972000Y-38989000D01*
X34494000Y-38989000D01*
X34494000Y-49750353D01*
G37*
X34494000Y-49750353D02*
X34490686Y-49784000D01*
X34503912Y-49918283D01*
X34543081Y-50047406D01*
X34544000Y-50049125D01*
X34544000Y-50546000D01*
X34546440Y-50570776D01*
X34553667Y-50594601D01*
X34565403Y-50616557D01*
X34581197Y-50635803D01*
X34600443Y-50651597D01*
X34622399Y-50663333D01*
X34646224Y-50670560D01*
X34671000Y-50673000D01*
X40894000Y-50673000D01*
X40894000Y-53467000D01*
X29972000Y-53467000D01*
X29972000Y-42486240D01*
X30044108Y-42248533D01*
X30085330Y-41830000D01*
X30044108Y-41411467D01*
X29972000Y-41173760D01*
X29972000Y-38989000D01*
X34494000Y-38989000D01*
X34494000Y-49750353D01*
%TD*%
M02*
