%TF.GenerationSoftware,KiCad,Pcbnew,(5.1.6)-1*%
%TF.CreationDate,2020-10-09T13:05:12-04:00*%
%TF.ProjectId,heater,68656174-6572-42e6-9b69-6361645f7063,rev?*%
%TF.SameCoordinates,Original*%
%TF.FileFunction,Soldermask,Top*%
%TF.FilePolarity,Negative*%
%FSLAX46Y46*%
G04 Gerber Fmt 4.6, Leading zero omitted, Abs format (unit mm)*
G04 Created by KiCad (PCBNEW (5.1.6)-1) date 2020-10-09 13:05:13*
%MOMM*%
%LPD*%
G01*
G04 APERTURE LIST*
%ADD10O,2.500000X2.500000*%
%ADD11C,2.500000*%
%ADD12C,2.700000*%
%ADD13R,2.700000X2.700000*%
G04 APERTURE END LIST*
%TO.C,Q1*%
G36*
G01*
X33988000Y-38988000D02*
X34338000Y-38988000D01*
G75*
G02*
X34513000Y-39163000I0J-175000D01*
G01*
X34513000Y-40663000D01*
G75*
G02*
X34338000Y-40838000I-175000J0D01*
G01*
X33988000Y-40838000D01*
G75*
G02*
X33813000Y-40663000I0J175000D01*
G01*
X33813000Y-39163000D01*
G75*
G02*
X33988000Y-38988000I175000J0D01*
G01*
G37*
G36*
G01*
X32718000Y-38988000D02*
X33068000Y-38988000D01*
G75*
G02*
X33243000Y-39163000I0J-175000D01*
G01*
X33243000Y-40663000D01*
G75*
G02*
X33068000Y-40838000I-175000J0D01*
G01*
X32718000Y-40838000D01*
G75*
G02*
X32543000Y-40663000I0J175000D01*
G01*
X32543000Y-39163000D01*
G75*
G02*
X32718000Y-38988000I175000J0D01*
G01*
G37*
G36*
G01*
X31448000Y-38988000D02*
X31798000Y-38988000D01*
G75*
G02*
X31973000Y-39163000I0J-175000D01*
G01*
X31973000Y-40663000D01*
G75*
G02*
X31798000Y-40838000I-175000J0D01*
G01*
X31448000Y-40838000D01*
G75*
G02*
X31273000Y-40663000I0J175000D01*
G01*
X31273000Y-39163000D01*
G75*
G02*
X31448000Y-38988000I175000J0D01*
G01*
G37*
G36*
G01*
X30178000Y-38988000D02*
X30528000Y-38988000D01*
G75*
G02*
X30703000Y-39163000I0J-175000D01*
G01*
X30703000Y-40663000D01*
G75*
G02*
X30528000Y-40838000I-175000J0D01*
G01*
X30178000Y-40838000D01*
G75*
G02*
X30003000Y-40663000I0J175000D01*
G01*
X30003000Y-39163000D01*
G75*
G02*
X30178000Y-38988000I175000J0D01*
G01*
G37*
G36*
G01*
X30178000Y-33838000D02*
X30528000Y-33838000D01*
G75*
G02*
X30703000Y-34013000I0J-175000D01*
G01*
X30703000Y-35513000D01*
G75*
G02*
X30528000Y-35688000I-175000J0D01*
G01*
X30178000Y-35688000D01*
G75*
G02*
X30003000Y-35513000I0J175000D01*
G01*
X30003000Y-34013000D01*
G75*
G02*
X30178000Y-33838000I175000J0D01*
G01*
G37*
G36*
G01*
X31448000Y-33838000D02*
X31798000Y-33838000D01*
G75*
G02*
X31973000Y-34013000I0J-175000D01*
G01*
X31973000Y-35513000D01*
G75*
G02*
X31798000Y-35688000I-175000J0D01*
G01*
X31448000Y-35688000D01*
G75*
G02*
X31273000Y-35513000I0J175000D01*
G01*
X31273000Y-34013000D01*
G75*
G02*
X31448000Y-33838000I175000J0D01*
G01*
G37*
G36*
G01*
X32718000Y-33838000D02*
X33068000Y-33838000D01*
G75*
G02*
X33243000Y-34013000I0J-175000D01*
G01*
X33243000Y-35513000D01*
G75*
G02*
X33068000Y-35688000I-175000J0D01*
G01*
X32718000Y-35688000D01*
G75*
G02*
X32543000Y-35513000I0J175000D01*
G01*
X32543000Y-34013000D01*
G75*
G02*
X32718000Y-33838000I175000J0D01*
G01*
G37*
G36*
G01*
X33988000Y-33838000D02*
X34338000Y-33838000D01*
G75*
G02*
X34513000Y-34013000I0J-175000D01*
G01*
X34513000Y-35513000D01*
G75*
G02*
X34338000Y-35688000I-175000J0D01*
G01*
X33988000Y-35688000D01*
G75*
G02*
X33813000Y-35513000I0J175000D01*
G01*
X33813000Y-34013000D01*
G75*
G02*
X33988000Y-33838000I175000J0D01*
G01*
G37*
%TD*%
D10*
%TO.C,R3*%
X52070000Y-52070000D03*
D11*
X52070000Y-21590000D03*
%TD*%
D10*
%TO.C,R2*%
X64770000Y-21590000D03*
D11*
X64770000Y-52070000D03*
%TD*%
D10*
%TO.C,R1*%
X77470000Y-21590000D03*
D11*
X77470000Y-52070000D03*
%TD*%
D10*
%TO.C,R4*%
X40005000Y-52070000D03*
D11*
X40005000Y-21590000D03*
%TD*%
D12*
%TO.C,J1*%
X27940000Y-46830000D03*
X27940000Y-41830000D03*
X27940000Y-36830000D03*
X27940000Y-31830000D03*
D13*
X27940000Y-26830000D03*
%TD*%
M02*
