%TF.GenerationSoftware,KiCad,Pcbnew,(5.1.6)-1*%
%TF.CreationDate,2020-10-16T10:26:54-04:00*%
%TF.ProjectId,heater,68656174-6572-42e6-9b69-6361645f7063,rev?*%
%TF.SameCoordinates,Original*%
%TF.FileFunction,Legend,Top*%
%TF.FilePolarity,Positive*%
%FSLAX46Y46*%
G04 Gerber Fmt 4.6, Leading zero omitted, Abs format (unit mm)*
G04 Created by KiCad (PCBNEW (5.1.6)-1) date 2020-10-16 10:26:54*
%MOMM*%
%LPD*%
G01*
G04 APERTURE LIST*
%ADD10C,0.120000*%
%ADD11C,0.150000*%
G04 APERTURE END LIST*
D10*
%TO.C,Q2*%
X29698000Y-41148000D02*
X29698000Y-44598000D01*
X29698000Y-41148000D02*
X29698000Y-39198000D01*
X34818000Y-41148000D02*
X34818000Y-43098000D01*
X34818000Y-41148000D02*
X34818000Y-39198000D01*
%TO.C,Q1*%
X34818000Y-52324000D02*
X34818000Y-48874000D01*
X34818000Y-52324000D02*
X34818000Y-54274000D01*
X29698000Y-52324000D02*
X29698000Y-50374000D01*
X29698000Y-52324000D02*
X29698000Y-54274000D01*
%TO.C,R3*%
X52070000Y-50630000D02*
X52070000Y-49450000D01*
X52070000Y-23030000D02*
X52070000Y-24210000D01*
X56690000Y-49450000D02*
X56690000Y-24210000D01*
X47450000Y-49450000D02*
X56690000Y-49450000D01*
X47450000Y-24210000D02*
X47450000Y-49450000D01*
X56690000Y-24210000D02*
X47450000Y-24210000D01*
%TO.C,R2*%
X64770000Y-23030000D02*
X64770000Y-24210000D01*
X64770000Y-50630000D02*
X64770000Y-49450000D01*
X60150000Y-24210000D02*
X60150000Y-49450000D01*
X69390000Y-24210000D02*
X60150000Y-24210000D01*
X69390000Y-49450000D02*
X69390000Y-24210000D01*
X60150000Y-49450000D02*
X69390000Y-49450000D01*
%TO.C,R1*%
X77470000Y-23030000D02*
X77470000Y-24210000D01*
X77470000Y-50630000D02*
X77470000Y-49450000D01*
X72850000Y-24210000D02*
X72850000Y-49450000D01*
X82090000Y-24210000D02*
X72850000Y-24210000D01*
X82090000Y-49450000D02*
X82090000Y-24210000D01*
X72850000Y-49450000D02*
X82090000Y-49450000D01*
%TO.C,R4*%
X44625000Y-24210000D02*
X35385000Y-24210000D01*
X35385000Y-24210000D02*
X35385000Y-49450000D01*
X35385000Y-49450000D02*
X44625000Y-49450000D01*
X44625000Y-49450000D02*
X44625000Y-24210000D01*
X40005000Y-23030000D02*
X40005000Y-24210000D01*
X40005000Y-50630000D02*
X40005000Y-49450000D01*
%TO.C,Q2*%
D11*
X33432761Y-37377619D02*
X33337523Y-37330000D01*
X33242285Y-37234761D01*
X33099428Y-37091904D01*
X33004190Y-37044285D01*
X32908952Y-37044285D01*
X32956571Y-37282380D02*
X32861333Y-37234761D01*
X32766095Y-37139523D01*
X32718476Y-36949047D01*
X32718476Y-36615714D01*
X32766095Y-36425238D01*
X32861333Y-36330000D01*
X32956571Y-36282380D01*
X33147047Y-36282380D01*
X33242285Y-36330000D01*
X33337523Y-36425238D01*
X33385142Y-36615714D01*
X33385142Y-36949047D01*
X33337523Y-37139523D01*
X33242285Y-37234761D01*
X33147047Y-37282380D01*
X32956571Y-37282380D01*
X33766095Y-36377619D02*
X33813714Y-36330000D01*
X33908952Y-36282380D01*
X34147047Y-36282380D01*
X34242285Y-36330000D01*
X34289904Y-36377619D01*
X34337523Y-36472857D01*
X34337523Y-36568095D01*
X34289904Y-36710952D01*
X33718476Y-37282380D01*
X34337523Y-37282380D01*
%TO.C,Q1*%
X33686761Y-48553619D02*
X33591523Y-48506000D01*
X33496285Y-48410761D01*
X33353428Y-48267904D01*
X33258190Y-48220285D01*
X33162952Y-48220285D01*
X33210571Y-48458380D02*
X33115333Y-48410761D01*
X33020095Y-48315523D01*
X32972476Y-48125047D01*
X32972476Y-47791714D01*
X33020095Y-47601238D01*
X33115333Y-47506000D01*
X33210571Y-47458380D01*
X33401047Y-47458380D01*
X33496285Y-47506000D01*
X33591523Y-47601238D01*
X33639142Y-47791714D01*
X33639142Y-48125047D01*
X33591523Y-48315523D01*
X33496285Y-48410761D01*
X33401047Y-48458380D01*
X33210571Y-48458380D01*
X34591523Y-48458380D02*
X34020095Y-48458380D01*
X34305809Y-48458380D02*
X34305809Y-47458380D01*
X34210571Y-47601238D01*
X34115333Y-47696476D01*
X34020095Y-47744095D01*
%TO.C,R3*%
X54443333Y-23312380D02*
X54110000Y-22836190D01*
X53871904Y-23312380D02*
X53871904Y-22312380D01*
X54252857Y-22312380D01*
X54348095Y-22360000D01*
X54395714Y-22407619D01*
X54443333Y-22502857D01*
X54443333Y-22645714D01*
X54395714Y-22740952D01*
X54348095Y-22788571D01*
X54252857Y-22836190D01*
X53871904Y-22836190D01*
X54776666Y-22312380D02*
X55395714Y-22312380D01*
X55062380Y-22693333D01*
X55205238Y-22693333D01*
X55300476Y-22740952D01*
X55348095Y-22788571D01*
X55395714Y-22883809D01*
X55395714Y-23121904D01*
X55348095Y-23217142D01*
X55300476Y-23264761D01*
X55205238Y-23312380D01*
X54919523Y-23312380D01*
X54824285Y-23264761D01*
X54776666Y-23217142D01*
%TO.C,R2*%
X67143333Y-23312380D02*
X66810000Y-22836190D01*
X66571904Y-23312380D02*
X66571904Y-22312380D01*
X66952857Y-22312380D01*
X67048095Y-22360000D01*
X67095714Y-22407619D01*
X67143333Y-22502857D01*
X67143333Y-22645714D01*
X67095714Y-22740952D01*
X67048095Y-22788571D01*
X66952857Y-22836190D01*
X66571904Y-22836190D01*
X67524285Y-22407619D02*
X67571904Y-22360000D01*
X67667142Y-22312380D01*
X67905238Y-22312380D01*
X68000476Y-22360000D01*
X68048095Y-22407619D01*
X68095714Y-22502857D01*
X68095714Y-22598095D01*
X68048095Y-22740952D01*
X67476666Y-23312380D01*
X68095714Y-23312380D01*
%TO.C,R1*%
X79843333Y-23312380D02*
X79510000Y-22836190D01*
X79271904Y-23312380D02*
X79271904Y-22312380D01*
X79652857Y-22312380D01*
X79748095Y-22360000D01*
X79795714Y-22407619D01*
X79843333Y-22502857D01*
X79843333Y-22645714D01*
X79795714Y-22740952D01*
X79748095Y-22788571D01*
X79652857Y-22836190D01*
X79271904Y-22836190D01*
X80795714Y-23312380D02*
X80224285Y-23312380D01*
X80510000Y-23312380D02*
X80510000Y-22312380D01*
X80414761Y-22455238D01*
X80319523Y-22550476D01*
X80224285Y-22598095D01*
%TO.C,R4*%
X42378333Y-23312380D02*
X42045000Y-22836190D01*
X41806904Y-23312380D02*
X41806904Y-22312380D01*
X42187857Y-22312380D01*
X42283095Y-22360000D01*
X42330714Y-22407619D01*
X42378333Y-22502857D01*
X42378333Y-22645714D01*
X42330714Y-22740952D01*
X42283095Y-22788571D01*
X42187857Y-22836190D01*
X41806904Y-22836190D01*
X43235476Y-22645714D02*
X43235476Y-23312380D01*
X42997380Y-22264761D02*
X42759285Y-22979047D01*
X43378333Y-22979047D01*
%TD*%
M02*
